<?xml version="1.0" encoding="utf-8"?>
<!-- Generator: Adobe Illustrator 15.1.0, SVG Export Plug-In . SVG Version: 6.00 Build 0)  -->
<!DOCTYPE svg PUBLIC "-//W3C//DTD SVG 1.1//EN" "http://www.w3.org/Graphics/SVG/1.1/DTD/svg11.dtd">
<svg version="1.1" id="Layer_1" xmlns="http://www.w3.org/2000/svg" xmlns:xlink="http://www.w3.org/1999/xlink" x="0px" y="0px"
	 width="1366px" height="768px" viewBox="0 0 1366 768" enable-background="new 0 0 1366 768" xml:space="preserve">
<path fill="#FCE192" d="M1203.246,185.327c6.9,0,14.279,15.324,14.279,38.137s-7.379,38.134-14.279,38.134
	s-14.283-15.321-14.283-38.134S1196.346,185.327,1203.246,185.327 M1203.246,184.022c-8.607,0-15.588,17.659-15.588,39.441
	c0,21.782,6.979,39.438,15.588,39.438c8.612,0,15.584-17.656,15.584-39.438C1218.83,201.681,1211.858,184.022,1203.246,184.022"/>
<line fill="none" stroke="#FCE192" stroke-width="0.73" x1="1165.895" y1="210.315" x2="1240.598" y2="210.315"/>
<path fill="#FCE192" d="M1203.246,185.327c21.027,0,38.134,17.106,38.134,38.137c0,21.027-17.105,38.134-38.134,38.134
	s-38.134-17.106-38.134-38.134C1165.112,202.433,1182.219,185.327,1203.246,185.327 M1203.246,184.022
	c-21.779,0-39.441,17.659-39.441,39.441c0,21.782,17.662,39.438,39.441,39.438c21.782,0,39.441-17.656,39.441-39.438
	C1242.688,201.681,1225.028,184.022,1203.246,184.022"/>
<line fill="none" stroke="#FCE192" stroke-width="0.73" x1="1166.132" y1="236.608" x2="1240.354" y2="236.608"/>
<rect x="1331.1" y="581.269" fill="#ADCAF9" width="35.086" height="86.562"/>
<line fill="none" stroke="#4285F4" stroke-width="1.056" x1="1343.008" y1="645.806" x2="1319.189" y2="645.806"/>
<line fill="none" stroke="#4285F4" stroke-width="1.056" x1="1343.008" y1="627.26" x2="1319.189" y2="627.26"/>
<path fill="#FABB04" d="M49.535,162.109h55c0-10.862-8.806-19.667-19.669-19.667H69.203
	C58.341,142.443,49.535,151.248,49.535,162.109"/>
<polygon fill="#4285F4" points="335.162,613.797 307.273,597.694 279.383,646 "/>
<rect x="123.166" y="459.066" fill="#EA4335" width="30.735" height="19.097"/>
<path fill="#A8DAB5" d="M208.517,737.365l-44.796-44.796c-8.847,8.848-8.847,23.189,0,32.038l12.76,12.758
	C185.325,746.211,199.669,746.211,208.517,737.365"/>
<circle fill="none" stroke="#164EA6" stroke-width="1.056" cx="906.13" cy="31.108" r="4.449"/>
<circle fill="none" stroke="#164EA6" stroke-width="1.056" cx="1198.059" cy="410.875" r="4.449"/>
<path fill="#FCE192" d="M1018.442,605.838c0-4.597,3.728-8.326,8.323-8.326c4.6,0,8.326,3.729,8.326,8.326
	c0,4.6-3.728,8.324-8.326,8.324C1022.17,614.162,1018.442,610.438,1018.442,605.838"/>
<path fill="none" stroke="#34A852" stroke-width="1.5" d="M1037.067,632.279l17.109,17.111c8.349,8.344,21.877,8.344,30.223,0
	c8.347-8.347,8.347-21.878,0-30.221l-14.791-14.796"/>
<line fill="none" stroke="#34A852" stroke-width="1.5" x1="1060.933" y1="609.586" x2="1071.771" y2="620.425"/>
<line fill="none" stroke="#34A852" stroke-width="1.5" x1="1051.688" y1="615.363" x2="1064.262" y2="627.935"/>
<line fill="none" stroke="#34A852" stroke-width="1.5" x1="1026.633" y1="605.325" x2="1056.749" y2="635.446"/>
<rect x="123" y="247.98" fill="#F9D2CF" width="36.881" height="73.631"/>
<path fill="#EA4335" d="M181.798,272.57v25.506v6.273l-7.021-7.02l-0.309-0.31h-0.437h-33.244V272.57H181.798z M182.854,271.516
	h-43.119v26.561h34.297l8.822,8.822v-8.822V271.516z"/>
<path fill="none" stroke="#EA4335" stroke-width="1.056" d="M399.594,43.21c0,5.749-4.678,10.427-10.43,10.427
	c-5.746,0-10.425-4.678-10.425-10.427"/>
<path fill="none" stroke="#F9D2CF" stroke-width="1.056" d="M428.406,84.535c0,11.125-9.017,20.141-20.142,20.141"/>
<path fill="none" stroke="#EA4335" stroke-width="1.056" d="M437.793,43.21c0,5.749-4.678,10.427-10.428,10.427
	s-10.574-4.678-10.574-10.427l-17.197,29.532h18.596"/>
<rect x="410.404" y="31.148" fill="#FFFFFF" width="18.596" height="12.063"/>
<polyline fill="none" stroke="#ADCAF9" stroke-width="2" points="748.045,68.303 767.248,87.505 786.451,68.303 "/>
<rect y="570" fill="#FCE387" width="50" height="91"/>
<g>
	
		<rect x="34.409" y="338.342" transform="matrix(-0.7071 0.7071 -0.7071 -0.7071 305.0087 556.1637)" fill="none" stroke="#ACDBB1" width="5.82" height="5.819"/>
	
		<rect x="44.638" y="349.668" transform="matrix(-0.7071 0.7071 -0.7071 -0.7071 330.4801 568.2659)" fill="none" stroke="#51A969" width="5.82" height="5.82"/>
	
		<rect x="55.78" y="360.769" transform="matrix(-0.7071 0.7071 -0.7071 -0.7071 357.1846 579.27)" fill="#ACDBB1" width="5.683" height="5.683"/>
</g>
<rect x="574.515" y="78.034" transform="matrix(-0.707 -0.7072 0.7072 -0.707 932.5823 556.5748)" fill="none" stroke="#EA4335" stroke-width="2" width="14.141" height="14.139"/>
<rect x="221.515" y="356.468" transform="matrix(-0.707 -0.7072 0.7072 -0.707 133.1 782.218)" fill="none" stroke="#EA4335" stroke-width="2" width="14.142" height="14.139"/>
<path fill="none" stroke="#ADCAF9" stroke-width="2" d="M173.609,568.429c0-5.526,4.473-10.005,10-10.005
	c5.522,0,10,4.479,10,10.005c0,5.522-4.478,10.005-10,10.005C178.083,578.434,173.609,573.951,173.609,568.429z"/>
<rect x="1084.178" y="120.867" fill="#A8DAB5" width="35.322" height="16.008"/>
<rect x="1176.994" y="565.219" fill="#4285F4" width="16.267" height="15.957"/>
<rect x="1346.798" y="305.656" fill="#EA4335" width="19.521" height="14.638"/>
<path fill="none" stroke="#EA4335" stroke-width="1.5" d="M1318.854,437.8l-24.44,24.44c-8.348,8.343-21.877,8.343-30.223,0
	c-8.347-8.347-8.347-21.878,0-30.222l14.792-14.795"/>
<line fill="none" stroke="#EA4335" stroke-width="1.5" x1="1304.549" y1="406.883" x2="1280.838" y2="430.594"/>
<line fill="none" stroke="#EA4335" stroke-width="1.5" x1="1316.452" y1="408.665" x2="1287.476" y2="437.637"/>
<line fill="none" stroke="#EA4335" stroke-width="1.5" x1="1318.415" y1="422.779" x2="1295.515" y2="445.676"/>
<line fill="none" stroke="#ADCAF9" stroke-width="1.5" x1="167.5" y1="80.605" x2="221.5" y2="80.605"/>
<polyline fill="none" stroke="#ADCAF9" stroke-width="1.5" points="197.955,76.61 183.978,57.409 170,76.61 "/>
<polyline fill="none" stroke="#ADCAF9" stroke-width="1.5" points="218.955,76.61 204.978,57.409 191,76.61 "/>
<line fill="none" stroke="#ADCAF9" stroke-width="1.5" x1="184.455" y1="80.605" x2="184.455" y2="90.605"/>
<line fill="none" stroke="#ADCAF9" stroke-width="1.5" x1="205.455" y1="80.605" x2="205.455" y2="90.605"/>
<g opacity="0.502" enable-background="new    ">
	<g>
		<g>
			<rect x="1331.1" y="581.269" fill="#ADCAF9" width="35.086" height="86.562"/>
			<line fill="none" stroke="#4285F4" stroke-width="1.056" x1="1343.008" y1="645.806" x2="1319.189" y2="645.806"/>
			<line fill="none" stroke="#4285F4" stroke-width="1.056" x1="1343.008" y1="627.26" x2="1319.189" y2="627.26"/>
			<rect x="1346.798" y="305.656" fill="#EA4335" width="19.521" height="14.638"/>
		</g>
	</g>
</g>
</svg>
