<?xml version="1.0" encoding="utf-8"?>
<!-- Generator: Adobe Illustrator 15.1.0, SVG Export Plug-In . SVG Version: 6.00 Build 0)  -->
<!DOCTYPE svg PUBLIC "-//W3C//DTD SVG 1.1//EN" "http://www.w3.org/Graphics/SVG/1.1/DTD/svg11.dtd">
<svg version="1.1" id="Layer_1" xmlns="http://www.w3.org/2000/svg" xmlns:xlink="http://www.w3.org/1999/xlink" x="0px" y="0px"
	 width="700px" height="245px" viewBox="0 0 700 245" enable-background="new 0 0 700 245" xml:space="preserve">
<rect opacity="0" fill="#FFFFFF" width="700" height="245"/>
<path fill="#4285F4" d="M133.982,206.006c-12.164,0-22.064-9.895-22.064-22.053v-20.355c0-12.16,9.9-22.059,22.064-22.059
	c12.155,0,22.057,9.898,22.057,22.059v20.355C156.039,196.111,146.138,206.006,133.982,206.006 M133.982,144.969
	c-10.28,0-18.639,8.357-18.639,18.629v20.355c0,10.273,8.358,18.633,18.639,18.633c10.275,0,18.631-8.359,18.631-18.633v-20.355
	C152.613,153.326,144.258,144.969,133.982,144.969"/>
<rect x="197.157" y="143.258" fill="#4285F4" width="3.419" height="61.039"/>
<polygon fill="#4285F4" points="71.168,206.008 39.201,206.008 39.201,194.107 42.62,194.107 42.62,202.584 71.168,202.584 "/>
<path fill="#4285F4" d="M42.62,194.107H39.2c0-8.787,7.153-15.945,15.952-15.945c9.158,0,16.592-7.441,16.592-16.596
	s-7.434-16.598-16.592-16.598h-14.24v-3.43h14.24c11.043,0,20.018,8.988,20.018,20.027c0,11.033-8.975,20.018-20.018,20.018
	C48.242,181.584,42.62,187.203,42.62,194.107"/>
<path fill="#4285F4" d="M261.879,206.008h-15.263v-3.424h15.263c10.277,0,18.639-8.357,18.639-18.633v-20.354
	c0-10.271-8.361-18.627-18.639-18.627v-3.432c12.157,0,22.061,9.896,22.061,22.059v20.354
	C283.939,196.111,274.036,206.008,261.879,206.008"/>
<path fill="#4285F4" d="M261.879,185.662c-12.164,0-22.059-9.895-22.059-22.064c0-12.162,9.895-22.059,22.059-22.059v3.43
	c-10.275,0-18.635,8.357-18.635,18.629c0,10.279,8.359,18.639,18.635,18.639c10.277,0,18.639-8.359,18.639-18.639h3.422
	C283.939,175.768,274.036,185.662,261.879,185.662"/>
<path fill="#EA4335" d="M282.266,121.176c-1.657-11.237-11.476-19.709-22.843-19.709H69.449c-14.364,0-28.082-3.249-40.787-9.672
	C17.806,86.314,7.891,78.459-0.001,69.083l1.291-1.089c7.75,9.207,17.478,16.911,28.134,22.289
	c12.464,6.3,25.929,9.498,40.025,9.498h189.974c12.198,0,22.731,9.094,24.517,21.158L282.266,121.176z"/>
</svg>
