<?xml version="1.0" encoding="utf-8"?>
<!-- Generator: Adobe Illustrator 15.1.0, SVG Export Plug-In . SVG Version: 6.00 Build 0)  -->
<!DOCTYPE svg PUBLIC "-//W3C//DTD SVG 1.1//EN" "http://www.w3.org/Graphics/SVG/1.1/DTD/svg11.dtd">
<svg version="1.1" id="Layer_1" xmlns="http://www.w3.org/2000/svg" xmlns:xlink="http://www.w3.org/1999/xlink" x="0px" y="0px"
	 width="700px" height="245px" viewBox="0 0 700 245" enable-background="new 0 0 700 245" xml:space="preserve">
<rect opacity="0" fill="#FFFFFF" width="700" height="245"/>
<path fill="#4285F4" d="M626.21,198.227H327.287v-1.691H626.21c14.965,0,29.285-3.396,42.543-10.09
	c11.371-5.736,21.725-13.943,29.952-23.748l1.295,1.088c-8.369,9.977-18.912,18.332-30.487,24.162
	C656.012,194.766,641.445,198.227,626.21,198.227"/>
<path fill="#EA4335" d="M327.287,99.64h25.354c2.786,0,5.384,0.432,7.796,1.307c2.403,0.862,4.482,2.03,6.234,3.481
	c1.74,1.458,3.102,3.152,4.088,5.096c0.984,1.948,1.479,3.965,1.479,6.053c0,3.428-0.833,6.281-2.483,8.544
	c-1.658,2.261-3.615,3.951-5.881,5.038v0.88c3.307,1.223,5.904,3.084,7.793,5.578c1.883,2.498,2.836,5.57,2.836,9.234
	c0,2.676-0.541,5.068-1.602,7.184c-1.084,2.111-2.572,3.916-4.451,5.406c-1.883,1.48-4.127,2.609-6.711,3.396
	c-2.576,0.785-5.391,1.178-8.404,1.178h-26.049V99.64z M351.339,124.372c2.433,0,4.317-0.546,5.657-1.647
	c1.336-1.105,2.008-2.672,2.008-4.708c0-2.028-0.672-3.604-2.008-4.698c-1.34-1.1-3.104-1.66-5.316-1.66h-10.798v12.713H351.339z
	 M352.467,149.824c5.619,0,8.443-2.326,8.443-6.979c0-4.65-2.938-6.967-8.797-6.967h-11.231v13.945H352.467z"/>
<rect x="383.562" y="99.639" fill="#EA4335" width="13.589" height="62.375"/>
<polygon fill="#EA4335" points="406.216,148.426 437.053,112.524 407.603,112.524 407.603,99.641 452.901,99.641 452.901,113.225 
	422.585,149.117 453.259,149.117 453.259,162.016 406.216,162.016 "/>
<polygon fill="#FABB04" points="504.133,112.526 504.133,99.639 463.004,99.639 463.004,162.016 476.603,162.016 476.603,137.969 
	501.337,137.969 501.337,125.08 476.603,125.08 476.603,112.526 "/>
<polygon fill="#FABB04" points="526.781,112.526 526.781,123.74 551.521,123.74 551.521,136.631 526.781,136.631 526.781,149.117 
	554.303,149.117 554.303,162.016 513.188,162.016 513.188,99.639 554.303,99.639 554.303,112.526 "/>
<path fill="#FABB04" d="M573.729,140.318c0.757,2.961,2.004,5.408,3.743,7.318c1.756,1.914,4.211,2.879,7.404,2.879
	c1.055,0,2.049-0.127,3.011-0.348c0.959-0.23,1.801-0.594,2.518-1.102c0.723-0.482,1.326-1.113,1.795-1.867
	c0.459-0.752,0.691-1.619,0.691-2.604c0-0.99-0.184-1.908-0.563-2.752c-0.379-0.838-1.004-1.617-1.867-2.35
	c-0.873-0.73-2.034-1.457-3.489-2.184c-1.452-0.715-3.275-1.494-5.482-2.301l-3.836-1.402c-1.626-0.569-3.301-1.369-5.012-2.395
	c-1.713-1.01-3.271-2.25-4.669-3.707c-1.386-1.438-2.521-3.121-3.388-4.999c-0.864-1.888-1.307-3.996-1.307-6.319
	c0-2.493,0.494-4.845,1.472-7.052c0.995-2.207,2.395-4.111,4.187-5.717c1.797-1.594,3.978-2.854,6.538-3.78
	c2.551-0.937,5.372-1.396,8.447-1.396c3.255,0,6.034,0.42,8.37,1.258c2.317,0.842,4.29,1.92,5.919,3.222
	c1.624,1.307,2.917,2.779,3.876,4.408c0.957,1.626,1.703,3.197,2.224,4.7l-11.766,4.97c-0.639-1.861-1.653-3.35-3.05-4.488
	c-1.394-1.133-3.197-1.703-5.394-1.703c-2.32,0-4.168,0.49-5.534,1.443c-1.373,0.956-2.044,2.187-2.044,3.702
	c0,1.567,0.694,2.973,2.096,4.18c1.375,1.221,3.846,2.439,7.397,3.656l3.829,1.308c5.283,1.804,9.375,4.224,12.278,7.233
	c2.907,3.018,4.357,7.09,4.357,12.189c0,3.258-0.657,6.066-1.956,8.465c-1.31,2.373-2.994,4.344-5.051,5.912
	c-2.066,1.574-4.387,2.738-6.974,3.537c-2.579,0.781-5.122,1.168-7.624,1.168c-5.804,0-10.822-1.555-15.029-4.658
	c-4.21-3.113-7.184-7.564-8.924-13.385L573.729,140.318"/>
<polygon fill="#FABB04" points="628.521,119.075 628.521,112.526 611.107,112.526 611.107,99.64 659.532,99.64 659.532,112.526 
	642.119,112.526 642.119,162.016 628.521,162.016 "/>
</svg>
