<?xml version="1.0" encoding="utf-8"?>
<!-- Generator: Adobe Illustrator 15.1.0, SVG Export Plug-In . SVG Version: 6.00 Build 0)  -->
<!DOCTYPE svg PUBLIC "-//W3C//DTD SVG 1.1//EN" "http://www.w3.org/Graphics/SVG/1.1/DTD/svg11.dtd">
<svg version="1.1" id="Layer_1" xmlns="http://www.w3.org/2000/svg" xmlns:xlink="http://www.w3.org/1999/xlink" x="0px" y="0px"
	 width="700px" height="245px" viewBox="0 0 700 245" enable-background="new 0 0 700 245" xml:space="preserve">
<rect opacity="0" fill="#FFFFFF" width="700" height="245"/>
<path fill="#EA4335" d="M349.779,232.648h-10.424v1.889h8.492l-0.05,0.502c-0.245,2.377-1.202,4.289-2.82,5.65
	c-1.606,1.357-3.642,2.061-6.073,2.061c-2.642,0-4.916-0.936-6.745-2.766c-1.808-1.855-2.722-4.201-2.722-6.982
	c0-2.766,0.914-5.109,2.722-6.959c1.829-1.838,4.104-2.764,6.745-2.764c1.369,0,2.649,0.256,3.831,0.76
	c1.03,0.447,1.905,1.045,2.619,1.795l1.495-1.498c-0.877-0.906-1.977-1.609-3.271-2.139c-1.452-0.584-3.021-0.873-4.674-0.873
	c-3.23,0-6.008,1.141-8.244,3.373c-2.233,2.238-3.375,5.031-3.375,8.305c0,3.283,1.142,6.088,3.375,8.318
	c2.24,2.244,5.02,3.379,8.244,3.379c3.381,0,6.143-1.107,8.215-3.301c1.84-1.846,2.761-4.344,2.761-7.451
	C349.88,233.527,349.851,233.092,349.779,232.648"/>
<polygon fill="#EA4335" points="379.42,223.785 379.42,221.854 366.752,221.854 366.752,244.184 379.42,244.184 379.42,242.229 
	368.834,242.229 368.834,233.953 378.381,233.953 378.381,232.074 368.834,232.074 368.834,223.785 "/>
<path fill="#EA4335" d="M415.215,224.723c-2.193-2.256-4.951-3.398-8.183-3.398c-3.236,0-5.979,1.143-8.178,3.373
	c-2.194,2.211-3.314,5.008-3.314,8.307c0,3.307,1.12,6.105,3.314,8.318c2.201,2.248,4.946,3.375,8.178,3.375
	c3.214,0,5.968-1.127,8.183-3.371c2.201-2.217,3.309-5.018,3.309-8.322C418.523,229.729,417.416,226.941,415.215,224.723
	 M413.677,239.979c-1.756,1.838-3.994,2.771-6.645,2.771c-2.644,0-4.896-0.934-6.683-2.773c-1.771-1.83-2.659-4.17-2.659-6.973
	c0-2.789,0.889-5.135,2.657-6.961c1.791-1.834,4.041-2.766,6.685-2.766c2.65,0,4.889,0.932,6.645,2.766
	c1.793,1.807,2.701,4.143,2.701,6.961C416.378,235.83,415.47,238.174,413.677,239.979"/>
<path fill="#EA4335" d="M447.648,244.184h2.529l-6.301-9.131l0.338-0.498l0.165-0.035c1.517-0.328,2.737-1.07,3.74-2.234
	c0.968-1.158,1.472-2.496,1.472-3.986c0-1.828-0.652-3.328-1.994-4.582c-1.345-1.262-2.918-1.863-4.828-1.863h-7.463v22.33h2.066
	v-9.42h4.019L447.648,244.184z M437.373,223.785h5.451c1.314,0,2.432,0.473,3.301,1.361c0.881,0.898,1.317,1.957,1.317,3.152
	c0,1.297-0.473,2.395-1.416,3.277c-0.925,0.863-2.064,1.301-3.385,1.301h-5.269V223.785z"/>
<path fill="#EA4335" d="M487.754,232.648h-10.421v1.889h8.49l-0.058,0.502c-0.253,2.383-1.207,4.289-2.812,5.65
	c-1.616,1.357-3.656,2.061-6.072,2.061c-2.651,0-4.918-0.936-6.75-2.766c-1.82-1.861-2.736-4.201-2.736-6.982
	c0-2.766,0.916-5.109,2.736-6.959c1.832-1.838,4.099-2.764,6.75-2.764c1.349,0,2.641,0.256,3.828,0.76
	c1.017,0.447,1.902,1.045,2.614,1.795l1.499-1.498c-0.881-0.906-1.975-1.609-3.267-2.139c-1.465-0.584-3.033-0.873-4.675-0.873
	c-3.236,0-6.005,1.141-8.242,3.373c-2.249,2.232-3.377,5.029-3.377,8.305c0,3.283,1.128,6.088,3.377,8.318
	c2.237,2.244,5.011,3.379,8.242,3.379c3.379,0,6.139-1.107,8.209-3.301c1.838-1.846,2.759-4.332,2.759-7.451
	C487.849,233.527,487.815,233.102,487.754,232.648"/>
<polygon fill="#EA4335" points="517.386,223.785 517.386,221.854 504.728,221.854 504.728,244.184 517.386,244.184 517.386,242.229 
	506.8,242.229 506.8,233.953 516.346,233.953 516.346,232.074 506.8,232.074 506.8,223.785 "/>
<polygon fill="#EA4335" points="545.286,221.852 530.222,221.852 530.222,223.785 536.717,223.785 536.717,244.178 538.797,244.178 
	538.797,223.785 545.286,223.785 "/>
<path fill="#EA4335" d="M580.179,224.723c-2.191-2.256-4.948-3.395-8.177-3.395c-3.24,0-6.002,1.133-8.181,3.361
	c-2.196,2.221-3.314,5.029-3.314,8.314c0,3.305,1.118,6.104,3.314,8.316c2.186,2.24,4.94,3.377,8.181,3.377
	c3.205,0,5.96-1.137,8.177-3.377c2.199-2.213,3.31-5.012,3.31-8.316C583.488,229.73,582.378,226.943,580.179,224.723
	 M578.65,239.992c-1.763,1.824-4.006,2.758-6.648,2.758c-2.66,0-4.908-0.934-6.689-2.771c-1.766-1.832-2.666-4.18-2.666-6.975
	c0-2.785,0.9-5.131,2.653-6.959c1.807-1.838,4.042-2.77,6.702-2.77c2.643,0,4.886,0.932,6.654,2.77
	c1.774,1.807,2.688,4.15,2.688,6.959C581.345,235.826,580.431,238.172,578.65,239.992"/>
<polygon fill="#EA4335" points="624.115,221.852 619.47,240.121 619.182,241.443 613.633,224.959 611.496,224.959 606.465,240.121 
	606.028,241.443 600.764,221.852 598.594,221.852 604.802,244.178 607.172,244.178 612.59,227.641 617.951,244.178 620.334,244.178 
	626.287,221.852 "/>
<polygon fill="#EA4335" points="657.12,244.178 659.531,244.178 659.531,221.852 657.454,221.852 657.454,234.988 657.454,241.072 
	656.746,239.916 645.451,221.852 642.519,221.852 642.519,244.178 644.599,244.178 644.599,230.154 644.599,224.15 645.309,225.225 
	"/>
</svg>
