<?xml version="1.0" encoding="utf-8"?>
<!-- Generator: Adobe Illustrator 15.1.0, SVG Export Plug-In . SVG Version: 6.00 Build 0)  -->
<!DOCTYPE svg PUBLIC "-//W3C//DTD SVG 1.1//EN" "http://www.w3.org/Graphics/SVG/1.1/DTD/svg11.dtd">
<svg version="1.1" id="Layer_1" xmlns="http://www.w3.org/2000/svg" xmlns:xlink="http://www.w3.org/1999/xlink" x="0px" y="0px"
	 width="700px" height="245px" viewBox="0 0 700 245" enable-background="new 0 0 700 245" xml:space="preserve">
<rect opacity="0" fill="#FFFFFF" width="700" height="245"/>
<g>
	<rect x="287.855" y="0.612" fill="#ADCAF9" width="27.869" height="68.769"/>
	<rect x="507.275" y="0.612" fill="#ADCAF9" width="27.873" height="68.769"/>
	<rect x="40.508" y="0.612" fill="#A8DAB5" width="27.863" height="68.769"/>
	<path fill="#A8DAB5" d="M144.21,69.379V0.611c-13.573,0-24.591,11.01-24.591,24.591v19.583
		C119.619,58.369,130.637,69.379,144.21,69.379"/>
	<rect x="144.211" y="0.612" fill="#34A852" width="31.162" height="68.769"/>
	<polygon fill="#A8DAB5" points="192.246,0.61 231.943,69.379 231.943,0.61 	"/>
	<polygon fill="#34A852" points="271.644,0.61 231.943,0.61 231.943,69.379 	"/>
	<path fill="#34A852" d="M68.371,0.61c18.988,0,34.379,15.398,34.379,34.387c0,18.99-15.391,34.382-34.379,34.382V0.61z"/>
	<path fill="#0D642C" d="M68.371,56.742V55.76c11.447,0,20.762-9.321,20.762-20.763c0-11.449-9.314-20.761-20.762-20.761H54.928
		V30.01h-0.986V13.246h14.43c11.995,0,21.748,9.759,21.748,21.751C90.119,46.987,80.366,56.742,68.371,56.742"/>
	<rect x="315.725" y="0.609" fill="#4285F4" width="22.932" height="17.199"/>
	<rect x="489.746" y="0.609" fill="#4285F4" width="17.529" height="17.199"/>
	<rect x="535.148" y="0.609" fill="#4285F4" width="17.512" height="17.199"/>
	<rect x="315.725" y="34.996" fill="#4285F4" width="17.197" height="17.191"/>
	<path fill="#4285F4" d="M455.237,0.61c-14.243,0-25.795,11.546-25.795,25.793c0,14.235,11.552,25.785,25.795,25.785V17.81h22.912
		V0.61H455.237z"/>
	<path fill="#ADCAF9" d="M455.237,17.808v34.378h-22.921V69.38h22.921c14.234,0,25.778-11.552,25.778-25.792
		C481.016,29.346,469.472,17.808,455.237,17.808"/>
	<path fill="#164EA6" d="M442.862,39.04c-3.428-3.354-5.308-7.84-5.308-12.636c0-9.754,7.933-17.687,17.683-17.687h12.889v0.984
		h-12.889c-9.209,0-16.698,7.497-16.698,16.703c0,4.528,1.778,8.765,5.013,11.931L442.862,39.04z"/>
	<rect x="498.513" y="8.882" fill="#164EA6" width="45.387" height="0.984"/>
	<path fill="#ADCAF9" d="M379.637,69.379V0.611c-13.586,0-24.59,11.01-24.59,24.591v19.583
		C355.047,58.369,366.051,69.379,379.637,69.379"/>
	<rect x="379.639" y="0.612" fill="#4285F4" width="31.16" height="68.769"/>
	<rect x="367.52" y="24.101" transform="matrix(1 0.007 -0.007 1 0.1819 -2.5974)" fill="#164EA6" width="4.447" height="0.988"/>
	<rect x="380.271" y="24.162" fill="#164EA6" width="30.525" height="0.982"/>
	<rect x="401.677" y="44.845" fill="#164EA6" width="9.12" height="0.986"/>
	<rect x="386.431" y="44.845" fill="#164EA6" width="6.938" height="0.986"/>
	<path fill="#0D642C" d="M231.943,46.06c-2.681,0-4.863-2.19-4.863-4.875c0-2.679,2.183-4.859,4.863-4.859
		c2.687,0,4.861,2.18,4.861,4.859C236.805,43.87,234.63,46.06,231.943,46.06 M231.943,37.314c-2.139,0-3.879,1.738-3.879,3.871
		c0,2.143,1.74,3.887,3.879,3.887c2.135,0,3.879-1.744,3.879-3.887C235.822,39.052,234.078,37.314,231.943,37.314"/>
	<path fill="#0D642C" d="M247.222,19.573c-2.677,0-4.853-2.184-4.853-4.865c0-2.68,2.176-4.863,4.853-4.863
		c2.69,0,4.873,2.183,4.873,4.863C252.095,17.39,249.912,19.573,247.222,19.573 M247.222,10.832c-2.129,0-3.868,1.742-3.868,3.877
		c0,2.139,1.739,3.881,3.868,3.881c2.144,0,3.89-1.742,3.89-3.881C251.111,12.574,249.365,10.832,247.222,10.832"/>
	
		<rect x="239.083" y="17.024" transform="matrix(0.8651 0.5017 -0.5017 0.8651 46.3567 -116.4124)" fill="#0D642C" width="0.989" height="21.884"/>
	<path fill="#0D642C" d="M216.659,19.573c-2.683,0-4.865-2.184-4.865-4.865c0-2.68,2.183-4.863,4.865-4.863s4.866,2.183,4.866,4.863
		C221.525,17.39,219.342,19.573,216.659,19.573 M216.659,10.832c-2.14,0-3.879,1.742-3.879,3.877c0,2.139,1.739,3.881,3.879,3.881
		c2.135,0,3.878-1.742,3.878-3.881C220.537,12.574,218.794,10.832,216.659,10.832"/>
	<polygon fill="#0D642C" points="229.355,37.69 218.413,18.738 219.27,18.242 230.206,37.194 	"/>
	<path fill="#0D642C" d="M54.434,40.682l-5.682-5.685l5.682-5.688l5.683,5.688L54.434,40.682z M50.147,34.997l4.286,4.288
		l4.289-4.288l-4.289-4.293L50.147,34.997z"/>
	<path fill="#164EA6" d="M397.53,50.192l-4.849-4.859l4.849-4.849l4.845,4.849L397.53,50.192z M394.069,45.333l3.461,3.463
		l3.453-3.463l-3.453-3.457L394.069,45.333z"/>
	<path fill="#164EA6" d="M376.203,29.503l-4.855-4.848l4.855-4.859l4.857,4.859L376.203,29.503z M372.742,24.655l3.461,3.455
		l3.462-3.455l-3.462-3.461L372.742,24.655z"/>
	<path fill="#164EA6" d="M521.205,28.564c-2.559,0-4.652-2.081-4.652-4.644c0-2.568,2.094-4.651,4.652-4.651
		c2.562,0,4.657,2.083,4.657,4.651C525.862,26.483,523.767,28.564,521.205,28.564 M521.205,20.251c-2.019,0-3.66,1.641-3.66,3.669
		c0,2.021,1.642,3.665,3.66,3.665c2.026,0,3.67-1.643,3.67-3.665C524.875,21.892,523.231,20.251,521.205,20.251"/>
	<path fill="#164EA6" d="M521.205,44.502c-2.559,0-4.652-2.085-4.652-4.651s2.094-4.653,4.652-4.653
		c2.562,0,4.657,2.087,4.657,4.653S523.767,44.502,521.205,44.502 M521.205,36.182c-2.019,0-3.66,1.649-3.66,3.669
		c0,2.023,1.642,3.665,3.66,3.665c2.026,0,3.67-1.641,3.67-3.665C524.875,37.831,523.231,36.182,521.205,36.182"/>
	<path fill="#164EA6" d="M521.205,60.438c-2.559,0-4.652-2.083-4.652-4.649c0-2.567,2.094-4.653,4.652-4.653
		c2.562,0,4.657,2.085,4.657,4.653C525.862,58.354,523.767,60.438,521.205,60.438 M521.205,52.122c-2.019,0-3.66,1.643-3.66,3.667
		c0,2.024,1.642,3.659,3.66,3.659c2.026,0,3.67-1.635,3.67-3.659C524.875,53.765,523.231,52.122,521.205,52.122"/>
	<path fill="#164EA6" d="M455.237,61.274h-8.121v-0.988h8.121c9.207,0,16.688-7.49,16.688-16.697
		c0-9.205-7.481-16.693-16.688-16.693v-0.99c9.752,0,17.681,7.935,17.681,17.683C472.918,53.341,464.989,61.274,455.237,61.274"/>
	<polygon fill="#164EA6" points="302.289,61.245 301.303,61.245 301.303,43.037 319.501,43.037 319.501,44.025 302.289,44.025 	"/>
	<polygon fill="#164EA6" points="302.289,34.561 301.303,34.561 301.303,8.706 327.153,8.706 327.153,9.692 302.289,9.692 	"/>
	<rect x="144.091" y="24.162" fill="#0D642C" width="31.282" height="0.982"/>
	<rect x="144.091" y="34.503" fill="#0D642C" width="31.282" height="0.987"/>
	<rect x="144.091" y="44.845" fill="#0D642C" width="31.282" height="0.986"/>
	<rect x="590.769" y="32.987" fill="#4285F4" width="24.167" height="2.773"/>
	<polygon fill="#4285F4" points="659.531,32.989 626.54,32.987 626.54,0 623.771,0 623.77,68.757 626.54,68.757 626.54,35.76 
		659.531,35.76 	"/>
</g>
</svg>
