<?xml version="1.0" encoding="utf-8"?>
<!-- Generator: Adobe Illustrator 15.1.0, SVG Export Plug-In . SVG Version: 6.00 Build 0)  -->
<!DOCTYPE svg PUBLIC "-//W3C//DTD SVG 1.1//EN" "http://www.w3.org/Graphics/SVG/1.1/DTD/svg11.dtd">
<svg version="1.1" id="Layer_1" xmlns="http://www.w3.org/2000/svg" xmlns:xlink="http://www.w3.org/1999/xlink" x="0px" y="0px"
	 width="140px" height="49px" viewBox="0 0 140 49" enable-background="new 0 0 140 49" xml:space="preserve">
<g>
	<defs>
		<rect id="SVGID_1_" width="140" height="48.939"/>
	</defs>
	<clipPath id="SVGID_2_">
		<use xlink:href="#SVGID_1_"  overflow="visible"/>
	</clipPath>
	<g clip-path="url(#SVGID_2_)" enable-background="new    ">
		<g>
			<defs>
				<rect id="SVGID_3_" width="140.885" height="48.959"/>
			</defs>
			<clipPath id="SVGID_4_">
				<use xlink:href="#SVGID_3_"  overflow="visible"/>
			</clipPath>
			<path clip-path="url(#SVGID_4_)" fill="#4285F4" d="M125.242,39.645H65.458v-0.338h59.785c2.992,0,5.857-0.68,8.509-2.018
				c2.274-1.146,4.345-2.787,5.99-4.75L140,32.756c-1.674,1.996-3.782,3.668-6.098,4.834
				C131.203,38.953,128.289,39.645,125.242,39.645"/>
			<path clip-path="url(#SVGID_4_)" fill="#EA4335" d="M65.458,19.928h5.071c0.558,0,1.077,0.086,1.56,0.261
				c0.479,0.173,0.896,0.406,1.246,0.696c0.348,0.292,0.621,0.63,0.818,1.019c0.197,0.39,0.296,0.793,0.296,1.21
				c0,0.686-0.167,1.256-0.497,1.709c-0.332,0.452-0.723,0.791-1.177,1.008v0.176c0.661,0.244,1.182,0.617,1.56,1.115
				c0.376,0.5,0.567,1.115,0.567,1.848c0,0.535-0.109,1.014-0.321,1.436c-0.217,0.424-0.514,0.783-0.891,1.082
				c-0.377,0.297-0.825,0.521-1.342,0.68c-0.516,0.156-1.078,0.234-1.681,0.234h-5.209V19.928z M70.268,24.875
				c0.487,0,0.863-0.109,1.131-0.329c0.268-0.222,0.402-0.535,0.402-0.942c0-0.405-0.135-0.72-0.402-0.939
				c-0.268-0.22-0.62-0.332-1.062-0.332h-2.159v2.542H70.268z M70.494,29.965c1.124,0,1.688-0.465,1.688-1.395
				c0-0.932-0.588-1.395-1.759-1.395h-2.246v2.789H70.494z"/>
			<rect x="76.713" y="19.928" clip-path="url(#SVGID_4_)" fill="#EA4335" width="2.717" height="12.474"/>
			<polygon clip-path="url(#SVGID_4_)" fill="#EA4335" points="81.243,29.686 87.411,22.505 81.521,22.505 81.521,19.928 
				90.58,19.928 90.58,22.645 84.517,29.824 90.652,29.824 90.652,32.402 81.243,32.402 			"/>
			<polygon clip-path="url(#SVGID_4_)" fill="#FABB04" points="100.826,22.505 100.826,19.928 92.601,19.928 92.601,32.402 
				95.32,32.402 95.32,27.594 100.268,27.594 100.268,25.016 95.32,25.016 95.32,22.505 			"/>
			<polygon clip-path="url(#SVGID_4_)" fill="#FABB04" points="105.357,22.505 105.357,24.749 110.304,24.749 110.304,27.326 
				105.357,27.326 105.357,29.824 110.86,29.824 110.86,32.402 102.638,32.402 102.638,19.928 110.86,19.928 110.86,22.505 			"/>
			<path clip-path="url(#SVGID_4_)" fill="#FABB04" d="M114.746,28.064c0.151,0.592,0.4,1.08,0.748,1.463
				c0.352,0.383,0.842,0.576,1.481,0.576c0.211,0,0.409-0.027,0.602-0.07c0.191-0.047,0.36-0.119,0.504-0.219
				c0.145-0.098,0.266-0.223,0.359-0.373c0.091-0.152,0.138-0.326,0.138-0.521c0-0.199-0.037-0.383-0.112-0.551
				c-0.076-0.168-0.201-0.324-0.373-0.471c-0.176-0.146-0.408-0.291-0.699-0.436c-0.29-0.143-0.654-0.299-1.097-0.461l-0.767-0.279
				c-0.325-0.115-0.659-0.275-1.002-0.48c-0.343-0.201-0.655-0.449-0.934-0.741c-0.277-0.287-0.504-0.624-0.678-1
				c-0.174-0.377-0.262-0.799-0.262-1.264c0-0.499,0.099-0.969,0.295-1.411c0.199-0.441,0.479-0.822,0.837-1.144
				c0.359-0.318,0.796-0.57,1.308-0.755c0.51-0.188,1.073-0.279,1.689-0.279c0.65,0,1.207,0.084,1.674,0.251
				c0.464,0.168,0.858,0.384,1.185,0.645c0.324,0.261,0.583,0.556,0.774,0.881c0.191,0.326,0.342,0.64,0.445,0.94l-2.354,0.994
				c-0.127-0.373-0.33-0.67-0.609-0.898c-0.279-0.226-0.64-0.34-1.079-0.34c-0.465,0-0.833,0.098-1.106,0.288
				c-0.275,0.191-0.41,0.438-0.41,0.74c0,0.314,0.14,0.595,0.42,0.836c0.275,0.244,0.769,0.488,1.479,0.731l0.766,0.261
				c1.057,0.361,1.875,0.844,2.456,1.446c0.581,0.605,0.871,1.418,0.871,2.439c0,0.65-0.132,1.211-0.391,1.691
				c-0.262,0.477-0.6,0.869-1.011,1.184c-0.413,0.314-0.877,0.547-1.394,0.707c-0.517,0.156-1.025,0.232-1.525,0.232
				c-1.16,0-2.165-0.311-3.007-0.93c-0.841-0.623-1.436-1.514-1.784-2.678L114.746,28.064"/>
			<polygon clip-path="url(#SVGID_4_)" fill="#FABB04" points="125.705,23.815 125.705,22.505 122.222,22.505 122.222,19.928 
				131.906,19.928 131.906,22.505 128.424,22.505 128.424,32.402 125.705,32.402 			"/>
			<path clip-path="url(#SVGID_4_)" fill="#4285F4" d="M26.796,41.201c-2.433,0-4.413-1.979-4.413-4.41v-4.072
				c0-2.432,1.98-4.41,4.413-4.41c2.431,0,4.412,1.979,4.412,4.41v4.072C31.208,39.223,29.228,41.201,26.796,41.201 M26.796,28.994
				c-2.056,0-3.728,1.672-3.728,3.725v4.072c0,2.055,1.671,3.727,3.728,3.727c2.056,0,3.727-1.672,3.727-3.727v-4.072
				C30.523,30.666,28.852,28.994,26.796,28.994"/>
			<rect x="39.432" y="28.652" clip-path="url(#SVGID_4_)" fill="#4285F4" width="0.684" height="12.207"/>
			<polygon clip-path="url(#SVGID_4_)" fill="#4285F4" points="14.233,41.201 7.84,41.201 7.84,38.822 8.524,38.822 8.524,40.518 
				14.233,40.518 			"/>
			<path clip-path="url(#SVGID_4_)" fill="#4285F4" d="M8.524,38.822H7.84c0-1.758,1.43-3.189,3.19-3.189
				c1.832,0,3.319-1.488,3.319-3.32c0-1.83-1.487-3.318-3.319-3.318H8.182v-0.686h2.848c2.209,0,4.004,1.797,4.004,4.004
				c0,2.209-1.795,4.004-4.004,4.004C9.649,36.316,8.524,37.439,8.524,38.822"/>
			<path clip-path="url(#SVGID_4_)" fill="#4285F4" d="M52.375,41.201h-3.052v-0.684h3.052c2.056,0,3.728-1.672,3.728-3.727v-4.072
				c0-2.053-1.672-3.725-3.728-3.725v-0.686c2.432,0,4.413,1.979,4.413,4.41v4.072C56.788,39.223,54.807,41.201,52.375,41.201"/>
			<path clip-path="url(#SVGID_4_)" fill="#4285F4" d="M52.375,37.133c-2.433,0-4.412-1.98-4.412-4.414
				c0-2.432,1.979-4.41,4.412-4.41v0.686c-2.055,0-3.727,1.672-3.727,3.725c0,2.057,1.672,3.729,3.727,3.729
				c2.056,0,3.728-1.672,3.728-3.729h0.685C56.788,35.152,54.807,37.133,52.375,37.133"/>
			<path clip-path="url(#SVGID_4_)" fill="#EA4335" d="M56.453,24.235c-0.331-2.247-2.295-3.941-4.568-3.941H13.89
				c-2.873,0-5.617-0.65-8.158-1.935C3.561,17.263,1.578,15.692,0,13.817l0.258-0.218c1.55,1.841,3.495,3.382,5.626,4.458
				c2.493,1.26,5.186,1.9,8.005,1.9h37.995c2.44,0,4.546,1.819,4.903,4.231L56.453,24.235z"/>
			<path clip-path="url(#SVGID_4_)" fill="#EA4335" d="M69.956,46.531h-2.085v0.375h1.698l-0.01,0.102
				c-0.049,0.477-0.24,0.857-0.564,1.131c-0.321,0.271-0.729,0.412-1.215,0.412c-0.528,0-0.983-0.188-1.349-0.555
				c-0.361-0.369-0.544-0.84-0.544-1.396c0-0.553,0.183-1.021,0.544-1.391c0.366-0.367,0.821-0.553,1.349-0.553
				c0.274,0,0.53,0.051,0.767,0.152c0.206,0.088,0.38,0.209,0.523,0.359l0.299-0.301c-0.176-0.182-0.396-0.322-0.654-0.428
				c-0.291-0.117-0.604-0.176-0.935-0.176c-0.646,0-1.202,0.229-1.648,0.676s-0.675,1.006-0.675,1.66
				c0,0.658,0.229,1.219,0.675,1.664c0.448,0.449,1.003,0.676,1.648,0.676c0.676,0,1.229-0.221,1.643-0.66
				c0.369-0.369,0.553-0.869,0.553-1.49C69.976,46.705,69.97,46.617,69.956,46.531"/>
			<polygon clip-path="url(#SVGID_4_)" fill="#EA4335" points="75.884,44.758 75.884,44.371 73.35,44.371 73.35,48.838 
				75.884,48.838 75.884,48.445 73.767,48.445 73.767,46.791 75.676,46.791 75.676,46.416 73.767,46.416 73.767,44.758 			"/>
			<path clip-path="url(#SVGID_4_)" fill="#EA4335" d="M83.043,44.945c-0.438-0.453-0.99-0.682-1.637-0.682
				s-1.195,0.229-1.636,0.676c-0.439,0.441-0.662,1.002-0.662,1.66c0,0.662,0.223,1.223,0.662,1.664
				c0.441,0.451,0.989,0.676,1.636,0.676c0.644,0,1.194-0.225,1.637-0.674c0.44-0.443,0.662-1.004,0.662-1.666
				C83.705,45.945,83.483,45.389,83.043,44.945 M82.735,47.996c-0.352,0.367-0.799,0.555-1.329,0.555
				c-0.528,0-0.979-0.188-1.336-0.557c-0.354-0.365-0.532-0.832-0.532-1.395c0-0.557,0.178-1.025,0.531-1.391
				c0.358-0.367,0.809-0.553,1.337-0.553c0.53,0,0.978,0.186,1.329,0.553c0.358,0.361,0.54,0.828,0.54,1.391
				C83.275,47.166,83.094,47.635,82.735,47.996"/>
			<path clip-path="url(#SVGID_4_)" fill="#EA4335" d="M89.53,48.838h0.505l-1.261-1.828l0.068-0.1l0.033-0.006
				c0.303-0.066,0.548-0.215,0.748-0.447c0.193-0.23,0.295-0.498,0.295-0.797c0-0.365-0.131-0.666-0.399-0.916
				c-0.269-0.254-0.584-0.373-0.965-0.373h-1.493v4.467h0.414v-1.885h0.804L89.53,48.838z M87.476,44.758h1.09
				c0.262,0,0.486,0.094,0.66,0.271c0.176,0.18,0.264,0.391,0.264,0.631c0,0.26-0.096,0.479-0.284,0.656
				c-0.185,0.172-0.413,0.258-0.676,0.258h-1.054V44.758z"/>
			<path clip-path="url(#SVGID_4_)" fill="#EA4335" d="M97.551,46.531h-2.084v0.375h1.697l-0.012,0.102
				c-0.051,0.477-0.24,0.857-0.562,1.131c-0.324,0.271-0.731,0.412-1.214,0.412c-0.531,0-0.983-0.188-1.351-0.555
				c-0.364-0.371-0.547-0.84-0.547-1.396c0-0.553,0.183-1.021,0.547-1.391c0.367-0.367,0.819-0.553,1.351-0.553
				c0.27,0,0.527,0.051,0.765,0.152c0.203,0.088,0.381,0.209,0.523,0.359l0.3-0.301c-0.177-0.182-0.396-0.322-0.653-0.428
				c-0.293-0.117-0.606-0.176-0.935-0.176c-0.648,0-1.202,0.229-1.649,0.676c-0.449,0.445-0.675,1.006-0.675,1.66
				c0,0.658,0.226,1.219,0.675,1.664c0.447,0.449,1.002,0.676,1.649,0.676c0.675,0,1.228-0.221,1.642-0.66
				c0.367-0.369,0.552-0.865,0.552-1.49C97.57,46.705,97.562,46.619,97.551,46.531"/>
			<polygon clip-path="url(#SVGID_4_)" fill="#EA4335" points="103.478,44.758 103.478,44.371 100.945,44.371 100.945,48.838 
				103.478,48.838 103.478,48.445 101.36,48.445 101.36,46.791 103.269,46.791 103.269,46.416 101.36,46.416 101.36,44.758 			"/>
			<polygon clip-path="url(#SVGID_4_)" fill="#EA4335" points="109.057,44.369 106.044,44.369 106.044,44.758 107.344,44.758 
				107.344,48.836 107.76,48.836 107.76,44.758 109.057,44.758 			"/>
			<path clip-path="url(#SVGID_4_)" fill="#EA4335" d="M116.036,44.945c-0.438-0.453-0.99-0.68-1.636-0.68
				c-0.647,0-1.2,0.227-1.636,0.672c-0.438,0.443-0.663,1.006-0.663,1.662c0,0.662,0.225,1.223,0.663,1.664
				c0.438,0.449,0.988,0.676,1.636,0.676c0.641,0,1.192-0.227,1.636-0.676c0.439-0.441,0.661-1.002,0.661-1.664
				C116.697,45.947,116.476,45.389,116.036,44.945 M115.729,47.998c-0.352,0.365-0.8,0.553-1.329,0.553
				c-0.532,0-0.981-0.188-1.338-0.555c-0.354-0.367-0.533-0.836-0.533-1.396c0-0.555,0.18-1.025,0.53-1.391
				c0.361-0.367,0.809-0.555,1.341-0.555c0.529,0,0.978,0.188,1.331,0.555c0.355,0.361,0.537,0.83,0.537,1.391
				C116.269,47.166,116.087,47.635,115.729,47.998"/>
			<polygon clip-path="url(#SVGID_4_)" fill="#EA4335" points="124.823,44.369 123.895,48.025 123.836,48.289 122.727,44.992 
				122.299,44.992 121.293,48.025 121.205,48.289 120.153,44.369 119.719,44.369 120.96,48.836 121.435,48.836 122.518,45.527 
				123.59,48.836 124.066,48.836 125.257,44.369 			"/>
			<polygon clip-path="url(#SVGID_4_)" fill="#EA4335" points="131.424,48.836 131.906,48.836 131.906,44.371 131.491,44.371 
				131.491,46.998 131.491,48.215 131.35,47.982 129.091,44.371 128.504,44.371 128.504,48.836 128.92,48.836 128.92,46.031 
				128.92,44.83 129.062,45.045 			"/>
			<rect x="57.571" y="0.123" clip-path="url(#SVGID_4_)" fill="#ADCAF9" width="5.574" height="13.754"/>
			<rect x="101.455" y="0.123" clip-path="url(#SVGID_4_)" fill="#ADCAF9" width="5.574" height="13.754"/>
			<rect x="8.101" y="0.123" clip-path="url(#SVGID_4_)" fill="#A8DAB5" width="5.573" height="13.754"/>
			<path clip-path="url(#SVGID_4_)" fill="#A8DAB5" d="M28.842,13.876V0.122c-2.715,0-4.918,2.202-4.918,4.918v3.917
				C23.924,11.674,26.127,13.876,28.842,13.876"/>
			<rect x="28.842" y="0.123" clip-path="url(#SVGID_4_)" fill="#34A852" width="6.232" height="13.754"/>
			<polygon clip-path="url(#SVGID_4_)" fill="#A8DAB5" points="38.449,0.122 46.389,13.876 46.389,0.122 			"/>
			<polygon clip-path="url(#SVGID_4_)" fill="#34A852" points="54.329,0.122 46.389,0.122 46.389,13.876 			"/>
			<path clip-path="url(#SVGID_4_)" fill="#34A852" d="M13.674,0.122c3.798,0,6.876,3.08,6.876,6.877
				c0,3.798-3.078,6.877-6.876,6.877V0.122z"/>
			<path clip-path="url(#SVGID_4_)" fill="#0D642C" d="M13.674,11.349v-0.197c2.29,0,4.152-1.864,4.152-4.153
				c0-2.29-1.863-4.152-4.152-4.152h-2.688v3.155h-0.197V2.649h2.886c2.399,0,4.35,1.951,4.35,4.35S16.073,11.349,13.674,11.349"/>
			<rect x="63.145" y="0.122" clip-path="url(#SVGID_4_)" fill="#4285F4" width="4.586" height="3.439"/>
			<rect x="97.949" y="0.122" clip-path="url(#SVGID_4_)" fill="#4285F4" width="3.506" height="3.439"/>
			<rect x="107.029" y="0.122" clip-path="url(#SVGID_4_)" fill="#4285F4" width="3.503" height="3.439"/>
			<rect x="63.145" y="6.999" clip-path="url(#SVGID_4_)" fill="#4285F4" width="3.439" height="3.439"/>
			<path clip-path="url(#SVGID_4_)" fill="#4285F4" d="M91.048,0.122c-2.849,0-5.159,2.309-5.159,5.159
				c0,2.847,2.311,5.157,5.159,5.157V3.562h4.583v-3.44H91.048z"/>
			<path clip-path="url(#SVGID_4_)" fill="#ADCAF9" d="M91.048,3.562v6.876h-4.585v3.439h4.585c2.847,0,5.155-2.311,5.155-5.158
				C96.203,5.869,93.895,3.562,91.048,3.562"/>
			<path clip-path="url(#SVGID_4_)" fill="#164EA6" d="M88.572,7.808c-0.686-0.671-1.062-1.568-1.062-2.527
				c0-1.951,1.586-3.538,3.537-3.538h2.577V1.94h-2.577c-1.842,0-3.341,1.499-3.341,3.34c0,0.906,0.356,1.753,1.004,2.386
				L88.572,7.808z"/>
			<rect x="99.702" y="1.776" clip-path="url(#SVGID_4_)" fill="#164EA6" width="9.078" height="0.197"/>
			<path clip-path="url(#SVGID_4_)" fill="#ADCAF9" d="M75.928,13.876V0.122c-2.717,0-4.918,2.202-4.918,4.918v3.917
				C71.01,11.674,73.211,13.876,75.928,13.876"/>
			<rect x="75.928" y="0.123" clip-path="url(#SVGID_4_)" fill="#4285F4" width="6.231" height="13.754"/>
			
				<rect x="73.504" y="4.821" transform="matrix(1 0.0071 -0.0071 1 0.037 -0.5275)" clip-path="url(#SVGID_4_)" fill="#164EA6" width="0.89" height="0.198"/>
			<rect x="76.055" y="4.833" clip-path="url(#SVGID_4_)" fill="#164EA6" width="6.104" height="0.197"/>
			<rect x="80.336" y="8.969" clip-path="url(#SVGID_4_)" fill="#164EA6" width="1.823" height="0.197"/>
			<rect x="77.286" y="8.969" clip-path="url(#SVGID_4_)" fill="#164EA6" width="1.388" height="0.197"/>
			<path clip-path="url(#SVGID_4_)" fill="#0D642C" d="M46.389,9.212c-0.536,0-0.972-0.438-0.972-0.976
				c0-0.536,0.436-0.972,0.972-0.972c0.538,0,0.973,0.436,0.973,0.972C47.361,8.774,46.926,9.212,46.389,9.212 M46.389,7.463
				c-0.428,0-0.776,0.348-0.776,0.774c0,0.429,0.348,0.777,0.776,0.777c0.427,0,0.776-0.348,0.776-0.777
				C47.165,7.811,46.815,7.463,46.389,7.463"/>
			<path clip-path="url(#SVGID_4_)" fill="#0D642C" d="M49.444,3.915c-0.535,0-0.97-0.438-0.97-0.973
				c0-0.536,0.435-0.973,0.97-0.973c0.538,0,0.975,0.437,0.975,0.973C50.419,3.478,49.982,3.915,49.444,3.915 M49.444,2.166
				c-0.426,0-0.774,0.349-0.774,0.776s0.348,0.776,0.774,0.776c0.429,0,0.778-0.349,0.778-0.776S49.873,2.166,49.444,2.166"/>
			
				<rect x="47.817" y="3.405" transform="matrix(0.8661 0.4999 -0.4999 0.8661 9.2115 -23.2024)" clip-path="url(#SVGID_4_)" fill="#0D642C" width="0.197" height="4.377"/>
			<path clip-path="url(#SVGID_4_)" fill="#0D642C" d="M43.332,3.915c-0.536,0-0.973-0.438-0.973-0.973
				c0-0.536,0.437-0.973,0.973-0.973c0.537,0,0.974,0.437,0.974,0.973C44.306,3.478,43.868,3.915,43.332,3.915 M43.332,2.166
				c-0.427,0-0.775,0.349-0.775,0.776s0.348,0.776,0.775,0.776c0.428,0,0.776-0.349,0.776-0.776S43.759,2.166,43.332,2.166"/>
			
				<rect x="42.674" y="5.494" transform="matrix(0.5001 0.866 -0.866 0.5001 27.2701 -36.0534)" clip-path="url(#SVGID_4_)" fill="#0D642C" width="4.376" height="0.198"/>
			<path clip-path="url(#SVGID_4_)" fill="#0D642C" d="M10.887,8.136L9.75,6.999l1.136-1.138l1.137,1.138L10.887,8.136z
				 M10.029,6.999l0.857,0.858l0.857-0.858l-0.857-0.858L10.029,6.999z"/>
			<path clip-path="url(#SVGID_4_)" fill="#164EA6" d="M79.506,10.039l-0.97-0.972l0.97-0.97l0.969,0.97L79.506,10.039z
				 M78.814,9.067l0.691,0.692l0.69-0.692l-0.69-0.691L78.814,9.067z"/>
			<path clip-path="url(#SVGID_4_)" fill="#164EA6" d="M75.241,5.9L74.27,4.931l0.972-0.972l0.972,0.972L75.241,5.9z M74.548,4.931
				l0.693,0.691l0.691-0.691l-0.691-0.692L74.548,4.931z"/>
			<path clip-path="url(#SVGID_4_)" fill="#164EA6" d="M104.24,5.713c-0.511,0-0.93-0.417-0.93-0.929c0-0.514,0.419-0.93,0.93-0.93
				c0.514,0,0.933,0.417,0.933,0.93C105.173,5.296,104.754,5.713,104.24,5.713 M104.24,4.05c-0.403,0-0.731,0.328-0.731,0.734
				c0,0.404,0.328,0.733,0.731,0.733c0.406,0,0.734-0.329,0.734-0.733C104.975,4.378,104.646,4.05,104.24,4.05"/>
			<path clip-path="url(#SVGID_4_)" fill="#164EA6" d="M104.24,8.9c-0.511,0-0.93-0.417-0.93-0.93c0-0.513,0.419-0.931,0.93-0.931
				c0.514,0,0.933,0.418,0.933,0.931C105.173,8.483,104.754,8.9,104.24,8.9 M104.24,7.236c-0.403,0-0.731,0.33-0.731,0.734
				c0,0.405,0.328,0.733,0.731,0.733c0.406,0,0.734-0.329,0.734-0.733C104.975,7.566,104.646,7.236,104.24,7.236"/>
			<path clip-path="url(#SVGID_4_)" fill="#164EA6" d="M104.24,12.088c-0.511,0-0.93-0.417-0.93-0.93
				c0-0.513,0.419-0.931,0.93-0.931c0.514,0,0.933,0.417,0.933,0.931C105.173,11.671,104.754,12.088,104.24,12.088 M104.24,10.425
				c-0.403,0-0.731,0.328-0.731,0.733c0,0.405,0.328,0.732,0.731,0.732c0.406,0,0.734-0.327,0.734-0.732
				C104.975,10.753,104.646,10.425,104.24,10.425"/>
			<path clip-path="url(#SVGID_4_)" fill="#164EA6" d="M91.048,12.255h-1.625v-0.198h1.625c1.841,0,3.338-1.498,3.338-3.34
				c0-1.84-1.497-3.338-3.338-3.338V5.181c1.95,0,3.536,1.587,3.536,3.536C94.584,10.668,92.998,12.255,91.048,12.255"/>
			<polygon clip-path="url(#SVGID_4_)" fill="#164EA6" points="60.458,12.249 60.261,12.249 60.261,8.607 63.9,8.607 63.9,8.805 
				60.458,8.805 			"/>
			<polygon clip-path="url(#SVGID_4_)" fill="#164EA6" points="60.458,6.913 60.261,6.913 60.261,1.741 65.431,1.741 65.431,1.938 
				60.458,1.938 			"/>
			<rect x="28.818" y="4.833" clip-path="url(#SVGID_4_)" fill="#0D642C" width="6.256" height="0.197"/>
			<rect x="28.818" y="6.901" clip-path="url(#SVGID_4_)" fill="#0D642C" width="6.256" height="0.197"/>
			<rect x="28.818" y="8.969" clip-path="url(#SVGID_4_)" fill="#0D642C" width="6.256" height="0.197"/>
			<rect x="118.153" y="6.597" clip-path="url(#SVGID_4_)" fill="#4285F4" width="4.834" height="0.555"/>
			<polygon clip-path="url(#SVGID_4_)" fill="#4285F4" points="131.906,6.598 125.309,6.598 125.309,0 124.755,0 124.754,13.751 
				125.309,13.751 125.309,7.152 131.906,7.152 			"/>
		</g>
	</g>
</g>
</svg>
