<?xml version="1.0" encoding="utf-8"?>
<!-- Generator: Adobe Illustrator 15.1.0, SVG Export Plug-In . SVG Version: 6.00 Build 0)  -->
<!DOCTYPE svg PUBLIC "-//W3C//DTD SVG 1.1//EN" "http://www.w3.org/Graphics/SVG/1.1/DTD/svg11.dtd">
<svg version="1.1" id="Layer_1" xmlns="http://www.w3.org/2000/svg" xmlns:xlink="http://www.w3.org/1999/xlink" x="0px" y="0px"
	 width="500px" height="137px" viewBox="0 0 500 137" enable-background="new 0 0 500 137" xml:space="preserve">
<g>
	<g>
		<polygon fill="#34A853" points="500,70.952 409.607,70.952 409.607,69.973 499.022,69.973 499.022,23.368 88.242,23.368 
			88.242,3.558 148.054,3.558 148.054,4.533 89.217,4.533 89.217,22.395 500,22.395 		"/>
	</g>
	<g>
		<polygon fill="#EA4335" points="148.035,70.952 0,70.952 0,22.395 38.848,22.395 38.848,23.368 0.979,23.368 0.979,69.973 
			148.035,69.973 		"/>
	</g>
	<g>
		<polygon fill="#4285F4" points="306.198,136.385 280.854,111.038 128.146,111.038 128.146,62.484 308.257,62.484 308.257,63.459 
			129.117,63.459 129.117,110.063 281.253,110.063 281.396,110.209 305.221,134.035 305.221,108.854 313.25,108.854 313.25,109.829 
			306.198,109.829 		"/>
	</g>
	<g>
		<polygon fill="#FBBC04" points="377.557,105.305 376.578,105.305 376.578,63.459 333.708,63.459 333.708,62.484 377.557,62.484 		
			"/>
	</g>
	<g>
		<g>
			<path fill="#174EA6" d="M164.932,80.008h3.143l2.438,9.186l0.352,1.69h0.176l0.465-1.69l2.26-7.076h2.769l2.286,7.076
				l0.438,1.669h0.178l0.329-1.669l2.288-9.186h3.138l-4.172,15.735h-2.859l-2.459-7.583l-0.461-1.734h-0.178l-0.462,1.734
				l-2.458,7.583h-2.86L164.932,80.008z"/>
		</g>
		<g>
			<path fill="#174EA6" d="M189.979,80.008h2.969v6.284h6.613v-6.284h2.969v15.735h-2.969v-6.639h-6.613v6.639h-2.969V80.008z"/>
		</g>
		<g>
			<path fill="#174EA6" d="M213.141,80.008h3.385l5.913,15.735h-3.276l-1.295-3.759h-6.066l-1.294,3.759h-3.276L213.141,80.008z
				 M216.898,89.26l-1.404-3.934l-0.57-1.912h-0.177l-0.573,1.912l-1.404,3.934H216.898z"/>
		</g>
		<g>
			<path fill="#174EA6" d="M230.48,95.743V82.818h-4.396v-2.811h11.758v2.811h-4.397v12.925H230.48z"/>
		</g>
		<g>
			<path fill="#174EA6" d="M242.327,84.993l1.118-1.711c-0.322-0.117-0.601-0.324-0.824-0.627c-0.229-0.3-0.342-0.662-0.342-1.089
				c0-0.525,0.188-0.974,0.562-1.348c0.371-0.377,0.82-0.561,1.35-0.561c0.525,0,0.973,0.184,1.341,0.561
				c0.365,0.374,0.546,0.822,0.546,1.348c0,0.277-0.045,0.529-0.139,0.748c-0.1,0.221-0.233,0.456-0.407,0.705l-1.912,2.832
				L242.327,84.993z"/>
		</g>
		<g>
			<path fill="#174EA6" d="M256.385,96.095c-0.673,0-1.314-0.099-1.931-0.286c-0.62-0.194-1.183-0.478-1.694-0.858
				c-0.513-0.382-0.957-0.845-1.337-1.393c-0.385-0.552-0.684-1.193-0.904-1.926l2.789-1.098c0.205,0.79,0.564,1.448,1.081,1.967
				c0.511,0.52,1.184,0.779,2.018,0.779c0.309,0,0.606-0.041,0.893-0.122c0.286-0.079,0.543-0.196,0.77-0.351
				c0.228-0.151,0.405-0.349,0.535-0.586c0.134-0.231,0.198-0.503,0.198-0.809c0-0.296-0.05-0.562-0.153-0.791
				c-0.098-0.234-0.275-0.454-0.515-0.662c-0.24-0.202-0.558-0.398-0.944-0.591c-0.388-0.19-0.866-0.388-1.439-0.596l-0.967-0.351
				c-0.426-0.143-0.854-0.344-1.284-0.592c-0.433-0.252-0.826-0.55-1.179-0.901c-0.352-0.352-0.641-0.765-0.867-1.241
				c-0.229-0.479-0.339-1.016-0.339-1.613c0-0.615,0.121-1.192,0.363-1.727c0.241-0.536,0.584-1.005,1.03-1.41
				c0.449-0.399,0.979-0.713,1.604-0.941c0.619-0.226,1.317-0.339,2.076-0.339c0.796,0,1.476,0.103,2.054,0.317
				c0.581,0.21,1.073,0.481,1.471,0.812c0.406,0.329,0.735,0.692,0.982,1.086c0.246,0.396,0.432,0.77,0.546,1.121l-2.611,1.101
				c-0.149-0.442-0.418-0.836-0.798-1.188c-0.395-0.354-0.921-0.528-1.602-0.528c-0.646,0-1.178,0.153-1.601,0.452
				c-0.425,0.3-0.638,0.692-0.638,1.173c0,0.469,0.203,0.87,0.614,1.201c0.41,0.33,1.06,0.646,1.952,0.955l0.993,0.326
				c0.632,0.223,1.206,0.474,1.726,0.762c0.515,0.285,0.967,0.627,1.337,1.021c0.376,0.392,0.665,0.845,0.859,1.351
				c0.196,0.507,0.301,1.088,0.301,1.747c0,0.82-0.168,1.527-0.495,2.118c-0.332,0.597-0.756,1.082-1.266,1.464
				c-0.514,0.381-1.092,0.664-1.739,0.858C257.632,95.996,257.002,96.095,256.385,96.095z"/>
		</g>
		<g>
			<path fill="#174EA6" d="M274.755,80.008h3.455l6.325,10.544h0.175l-0.175-3.028v-7.516h2.945v15.735h-3.121l-6.681-11.143h-0.174
				l0.174,3.034v8.108h-2.924V80.008z"/>
		</g>
		<g>
			<path fill="#174EA6" d="M296.469,82.818v3.65h6.306v2.812h-6.306v3.649h7.007v2.813h-9.977V80.008h9.977v2.811H296.469z"/>
		</g>
		<g>
			<path fill="#174EA6" d="M312.993,87.523l-4.771-7.516h3.669l3.057,5.144h0.172l3.058-5.144h3.669l-4.769,7.516l5.166,8.22h-3.693
				l-3.431-5.669h-0.172l-3.427,5.669h-3.692L312.993,87.523z"/>
		</g>
		<g>
			<path fill="#174EA6" d="M330.369,95.743V82.818h-4.389v-2.811h11.755v2.811h-4.395v12.925H330.369z"/>
		</g>
	</g>
	<g>
		<g>
			<path fill="#174EA6" d="M43.077,54.658v-12.92h-4.396v-2.811h11.753v2.811h-4.392v12.92H43.077z"/>
		</g>
		<g>
			<path fill="#174EA6" d="M58.365,41.738v3.647h6.311v2.812h-6.311v3.651h7.015v2.809h-9.977V38.927h9.977v2.811H58.365z"/>
		</g>
		<g>
			<path fill="#174EA6" d="M84.717,52.13c-0.777,0.942-1.691,1.654-2.746,2.145c-1.058,0.491-2.237,0.737-3.538,0.737
				c-1.171,0-2.261-0.214-3.266-0.638c-1.003-0.428-1.868-1.005-2.603-1.738c-0.731-0.73-1.311-1.6-1.734-2.604
				c-0.427-1.001-0.64-2.083-0.64-3.242c0-1.156,0.213-2.236,0.64-3.24c0.424-1.001,1.003-1.874,1.734-2.605
				c0.734-0.733,1.6-1.31,2.603-1.735c1.005-0.422,2.095-0.639,3.266-0.639c1.259,0,2.367,0.223,3.331,0.66
				c0.957,0.441,1.809,1.077,2.557,1.912l-2.086,2.023c-0.469-0.542-1.008-0.975-1.615-1.296c-0.611-0.322-1.332-0.482-2.166-0.482
				c-0.736,0-1.42,0.129-2.064,0.384c-0.648,0.255-1.203,0.618-1.682,1.088c-0.478,0.468-0.852,1.037-1.133,1.704
				c-0.275,0.663-0.414,1.409-0.414,2.227c0,0.823,0.139,1.563,0.414,2.234c0.281,0.665,0.655,1.233,1.133,1.699
				c0.479,0.469,1.033,0.833,1.682,1.09c0.645,0.256,1.328,0.384,2.064,0.384c0.881,0,1.661-0.178,2.343-0.538
				c0.679-0.357,1.283-0.867,1.812-1.526L84.717,52.13z"/>
		</g>
		<g>
			<path fill="#174EA6" d="M89.944,38.927h2.966v6.286h6.614v-6.286h2.97v15.731h-2.97v-6.637H92.91v6.637h-2.966V38.927z"/>
		</g>
		<g>
			<path fill="#174EA6" d="M108.515,38.927h3.448l6.331,10.546h0.173l-0.173-3.033v-7.514h2.943v15.731h-3.119l-6.681-11.141h-0.173
				l0.173,3.031v8.11h-2.923V38.927z"/>
		</g>
		<g>
			<path fill="#174EA6" d="M134.707,55.012c-1.176,0-2.264-0.214-3.263-0.638c-1.001-0.428-1.874-1.009-2.603-1.75
				c-0.735-0.738-1.307-1.61-1.727-2.613c-0.418-1.001-0.629-2.076-0.629-3.221c0-1.139,0.211-2.21,0.629-3.218
				c0.42-1.002,0.991-1.876,1.727-2.616c0.729-0.736,1.602-1.321,2.603-1.746c0.999-0.422,2.087-0.639,3.263-0.639
				c1.17,0,2.26,0.217,3.267,0.639c0.997,0.425,1.866,1.01,2.604,1.746c0.729,0.74,1.306,1.614,1.719,2.616
				c0.418,1.008,0.628,2.079,0.628,3.218c0,1.145-0.21,2.22-0.628,3.221c-0.413,1.003-0.989,1.875-1.719,2.613
				c-0.738,0.74-1.607,1.322-2.604,1.75C136.967,54.797,135.877,55.012,134.707,55.012z M134.707,52.197
				c0.73,0,1.417-0.131,2.053-0.394c0.639-0.266,1.197-0.632,1.671-1.101c0.479-0.469,0.849-1.035,1.122-1.704
				c0.272-0.665,0.405-1.398,0.405-2.208c0-0.808-0.133-1.539-0.405-2.205c-0.273-0.672-0.643-1.235-1.122-1.706
				c-0.474-0.466-1.032-0.834-1.671-1.096c-0.636-0.265-1.322-0.396-2.053-0.396c-0.732,0-1.417,0.131-2.057,0.396
				c-0.637,0.262-1.189,0.63-1.665,1.096c-0.479,0.471-0.854,1.034-1.124,1.706c-0.269,0.666-0.404,1.397-0.404,2.205
				c0,0.811,0.136,1.544,0.404,2.208c0.27,0.669,0.645,1.235,1.124,1.704c0.476,0.469,1.028,0.835,1.665,1.101
				C133.29,52.066,133.975,52.197,134.707,52.197z"/>
		</g>
		<g>
			<path fill="#174EA6" d="M148.177,38.927h2.969V51.85h6.658v2.809h-9.627V38.927z"/>
		</g>
		<g>
			<path fill="#174EA6" d="M170.217,55.012c-1.172,0-2.261-0.214-3.264-0.638c-1.006-0.428-1.871-1.009-2.603-1.75
				c-0.735-0.738-1.306-1.61-1.724-2.613c-0.418-1.001-0.626-2.076-0.626-3.221c0-1.139,0.208-2.21,0.626-3.218
				c0.418-1.002,0.988-1.876,1.724-2.616c0.731-0.736,1.597-1.321,2.603-1.746c1.003-0.422,2.092-0.639,3.264-0.639
				c1.174,0,2.264,0.217,3.263,0.639c1.003,0.425,1.871,1.01,2.604,1.746c0.73,0.74,1.311,1.614,1.725,2.616
				c0.419,1.008,0.626,2.079,0.626,3.218c0,1.145-0.207,2.22-0.626,3.221c-0.414,1.003-0.994,1.875-1.725,2.613
				c-0.733,0.74-1.602,1.322-2.604,1.75C172.48,54.797,171.391,55.012,170.217,55.012z M170.217,52.197
				c0.735,0,1.42-0.131,2.052-0.394c0.64-0.266,1.196-0.632,1.672-1.101c0.478-0.469,0.851-1.035,1.123-1.704
				c0.271-0.665,0.405-1.398,0.405-2.208c0-0.808-0.135-1.539-0.405-2.205c-0.272-0.672-0.646-1.235-1.123-1.706
				c-0.476-0.466-1.032-0.834-1.672-1.096c-0.632-0.265-1.316-0.396-2.052-0.396c-0.73,0-1.414,0.131-2.054,0.396
				c-0.638,0.262-1.194,0.63-1.673,1.096c-0.477,0.471-0.846,1.034-1.119,1.706c-0.273,0.666-0.405,1.397-0.405,2.205
				c0,0.811,0.132,1.544,0.405,2.208c0.273,0.669,0.643,1.235,1.119,1.704c0.479,0.469,1.035,0.835,1.673,1.101
				C168.803,52.066,169.486,52.197,170.217,52.197z"/>
		</g>
		<g>
			<path fill="#174EA6" d="M191.157,46.024h7.716c0.042,0.174,0.082,0.386,0.107,0.634c0.032,0.252,0.047,0.499,0.047,0.75
				c0,1.01-0.154,1.96-0.463,2.853c-0.312,0.897-0.79,1.695-1.449,2.397c-0.705,0.748-1.551,1.328-2.528,1.737
				c-0.981,0.41-2.103,0.616-3.365,0.616c-1.14,0-2.218-0.207-3.228-0.616c-1.014-0.41-1.889-0.981-2.637-1.715
				c-0.748-0.733-1.342-1.602-1.782-2.603c-0.437-1.003-0.654-2.1-0.654-3.287s0.218-2.28,0.654-3.283
				c0.44-1.003,1.034-1.873,1.782-2.605s1.623-1.304,2.637-1.716c1.01-0.408,2.088-0.615,3.228-0.615
				c1.276,0,2.417,0.223,3.421,0.66c1.004,0.441,1.863,1.05,2.58,1.827l-2.043,1.999c-0.514-0.545-1.084-0.957-1.709-1.244
				c-0.635-0.284-1.389-0.426-2.268-0.426c-0.719,0-1.402,0.129-2.045,0.384c-0.644,0.255-1.207,0.618-1.695,1.088
				c-0.482,0.468-0.865,1.037-1.148,1.704c-0.286,0.663-0.43,1.409-0.43,2.227c0,0.823,0.144,1.563,0.43,2.234
				c0.283,0.665,0.673,1.233,1.165,1.699c0.488,0.469,1.055,0.833,1.7,1.09c0.645,0.256,1.334,0.384,2.066,0.384
				c0.836,0,1.543-0.122,2.118-0.364c0.583-0.235,1.079-0.55,1.487-0.932c0.292-0.261,0.545-0.595,0.754-0.998
				c0.215-0.404,0.38-0.855,0.496-1.353h-4.944V46.024z"/>
		</g>
		<g>
			<path fill="#174EA6" d="M208.322,47.342l-5.301-8.415h3.541l3.143,5.205h0.171l3.037-5.205h3.582l-5.21,8.415v7.316h-2.963
				V47.342z"/>
		</g>
		<g>
			<path fill="#174EA6" d="M239.281,51.429l1.649,1.977l-2.091,1.605l-1.143-1.384c-1.038,0.924-2.289,1.384-3.755,1.384
				c-0.821,0-1.589-0.136-2.296-0.407c-0.713-0.27-1.331-0.652-1.854-1.142c-0.53-0.494-0.946-1.074-1.245-1.75
				c-0.299-0.672-0.449-1.412-0.449-2.22c0-0.876,0.218-1.711,0.646-2.503c0.434-0.791,1.033-1.467,1.816-2.022
				c-0.282-0.378-0.508-0.774-0.686-1.184c-0.177-0.414-0.262-0.843-0.262-1.301c0-0.538,0.1-1.051,0.295-1.526
				c0.197-0.474,0.483-0.889,0.848-1.24c0.366-0.351,0.793-0.631,1.297-0.837c0.495-0.204,1.043-0.308,1.647-0.308
				c1.054,0,1.901,0.247,2.541,0.738c0.636,0.491,1.091,1.11,1.369,1.856l-2.33,1.23c-0.118-0.351-0.299-0.657-0.55-0.914
				c-0.246-0.251-0.577-0.384-0.99-0.384c-0.42,0-0.76,0.127-1.006,0.378c-0.25,0.246-0.375,0.56-0.375,0.943
				c0,0.236,0.053,0.45,0.152,0.648c0.104,0.199,0.242,0.407,0.416,0.628l4.727,5.754l1.297-2.107l2.086,1.318L239.281,51.429z
				 M234.072,52.415c0.822,0,1.496-0.241,2.023-0.721l-3.978-4.812c-0.413,0.304-0.726,0.68-0.946,1.131
				c-0.217,0.444-0.329,0.904-0.329,1.371c0,0.47,0.087,0.894,0.266,1.267c0.171,0.37,0.413,0.693,0.714,0.952
				c0.299,0.268,0.643,0.467,1.029,0.605C233.24,52.349,233.65,52.415,234.072,52.415z"/>
		</g>
		<g>
			<path fill="#174EA6" d="M261.1,55.012c-1.169,0-2.259-0.214-3.262-0.638c-1.001-0.428-1.871-1.009-2.604-1.75
				c-0.733-0.738-1.31-1.61-1.729-2.613c-0.412-1.001-0.622-2.076-0.622-3.221c0-1.139,0.21-2.21,0.622-3.218
				c0.42-1.002,0.996-1.876,1.729-2.616c0.732-0.736,1.603-1.321,2.604-1.746c1.003-0.422,2.093-0.639,3.262-0.639
				c1.175,0,2.263,0.217,3.264,0.639c1.005,0.425,1.875,1.01,2.604,1.746c0.734,0.74,1.308,1.614,1.729,2.616
				c0.414,1.008,0.622,2.079,0.622,3.218c0,1.145-0.208,2.22-0.622,3.221c-0.421,1.003-0.994,1.875-1.729,2.613
				c-0.729,0.74-1.599,1.322-2.604,1.75C263.362,54.797,262.274,55.012,261.1,55.012z M261.1,52.197
				c0.734,0,1.417-0.131,2.057-0.394c0.637-0.266,1.193-0.632,1.67-1.101s0.85-1.035,1.118-1.704
				c0.274-0.665,0.407-1.398,0.407-2.208c0-0.808-0.133-1.539-0.407-2.205c-0.269-0.672-0.642-1.235-1.118-1.706
				c-0.477-0.466-1.033-0.834-1.67-1.096c-0.64-0.265-1.322-0.396-2.057-0.396c-0.733,0-1.417,0.131-2.056,0.396
				c-0.635,0.262-1.191,0.63-1.666,1.096c-0.481,0.471-0.851,1.034-1.122,1.706c-0.271,0.666-0.404,1.397-0.404,2.205
				c0,0.811,0.133,1.544,0.404,2.208c0.271,0.669,0.641,1.235,1.122,1.704c0.475,0.469,1.031,0.835,1.666,1.101
				C259.683,52.066,260.366,52.197,261.1,52.197z"/>
		</g>
		<g>
			<path fill="#174EA6" d="M274.572,54.658V38.927h5.535c0.748,0,1.447,0.119,2.1,0.359c0.651,0.245,1.22,0.585,1.702,1.023
				c0.485,0.44,0.862,0.962,1.145,1.569c0.28,0.61,0.417,1.279,0.417,2.014c0,0.748-0.137,1.424-0.417,2.032
				c-0.282,0.606-0.659,1.13-1.145,1.572c-0.482,0.439-1.051,0.781-1.702,1.021c-0.652,0.243-1.352,0.361-2.1,0.361h-2.57v5.779
				H274.572z M280.155,46.066c0.772,0,1.358-0.221,1.759-0.657c0.395-0.441,0.588-0.946,0.588-1.516c0-0.28-0.047-0.55-0.143-0.812
				c-0.093-0.268-0.237-0.495-0.438-0.696c-0.198-0.194-0.439-0.352-0.738-0.469c-0.29-0.117-0.635-0.177-1.028-0.177h-2.618v4.328
				H280.155z"/>
		</g>
		<g>
			<path fill="#174EA6" d="M290.436,54.658V38.927h5.537c0.747,0,1.446,0.119,2.103,0.359c0.651,0.245,1.219,0.585,1.697,1.023
				c0.489,0.44,0.865,0.962,1.145,1.569c0.278,0.61,0.419,1.279,0.419,2.014c0,0.748-0.141,1.424-0.419,2.032
				c-0.279,0.606-0.655,1.13-1.145,1.572c-0.479,0.439-1.046,0.781-1.697,1.021c-0.656,0.243-1.355,0.361-2.103,0.361h-2.57v5.779
				H290.436z M296.017,46.066c0.776,0,1.364-0.221,1.761-0.657c0.396-0.441,0.592-0.946,0.592-1.516c0-0.28-0.048-0.55-0.147-0.812
				c-0.094-0.268-0.237-0.495-0.436-0.696c-0.196-0.194-0.44-0.352-0.735-0.469c-0.292-0.117-0.641-0.177-1.034-0.177h-2.614v4.328
				H296.017z"/>
		</g>
		<g>
			<path fill="#174EA6" d="M313.75,55.012c-1.169,0-2.257-0.214-3.264-0.638c-1.003-0.428-1.868-1.009-2.604-1.75
				c-0.732-0.738-1.309-1.61-1.725-2.613c-0.416-1.001-0.625-2.076-0.625-3.221c0-1.139,0.209-2.21,0.625-3.218
				c0.416-1.002,0.992-1.876,1.725-2.616c0.735-0.736,1.601-1.321,2.604-1.746c1.007-0.422,2.095-0.639,3.264-0.639
				c1.175,0,2.261,0.217,3.264,0.639c1.005,0.425,1.873,1.01,2.604,1.746c0.731,0.74,1.31,1.614,1.725,2.616
				c0.42,1.008,0.624,2.079,0.624,3.218c0,1.145-0.204,2.22-0.624,3.221c-0.415,1.003-0.993,1.875-1.725,2.613
				c-0.731,0.74-1.6,1.322-2.604,1.75C316.011,54.797,314.925,55.012,313.75,55.012z M313.75,52.197c0.734,0,1.42-0.131,2.056-0.394
				c0.637-0.266,1.193-0.632,1.672-1.101c0.473-0.469,0.849-1.035,1.119-1.704c0.272-0.665,0.404-1.398,0.404-2.208
				c0-0.808-0.132-1.539-0.404-2.205c-0.271-0.672-0.646-1.235-1.119-1.706c-0.479-0.466-1.035-0.834-1.672-1.096
				c-0.636-0.265-1.321-0.396-2.056-0.396c-0.73,0-1.416,0.131-2.053,0.396c-0.643,0.262-1.197,0.63-1.672,1.096
				c-0.477,0.471-0.85,1.034-1.12,1.706c-0.269,0.666-0.405,1.397-0.405,2.205c0,0.811,0.137,1.544,0.405,2.208
				c0.271,0.669,0.644,1.235,1.12,1.704c0.475,0.469,1.029,0.835,1.672,1.101C312.334,52.066,313.02,52.197,313.75,52.197z"/>
		</g>
		<g>
			<path fill="#174EA6" d="M327.223,38.927h5.731c0.792,0,1.513,0.121,2.157,0.369c0.646,0.25,1.193,0.596,1.658,1.034
				c0.46,0.443,0.813,0.966,1.066,1.574c0.25,0.608,0.371,1.272,0.371,1.988c0,0.525-0.085,1.021-0.263,1.483
				c-0.175,0.462-0.416,0.879-0.725,1.249c-0.306,0.379-0.667,0.707-1.077,0.993c-0.407,0.285-0.842,0.506-1.3,0.668l-0.015,0.152
				l4.216,6.043v0.177h-3.405l-4.066-5.912h-1.385v5.912h-2.965V38.927z M332.938,46.024c0.67,0,1.222-0.205,1.659-0.616
				c0.431-0.409,0.646-0.933,0.646-1.562c0-0.279-0.049-0.55-0.142-0.81c-0.094-0.266-0.24-0.499-0.43-0.707
				c-0.191-0.205-0.43-0.368-0.714-0.492c-0.285-0.124-0.612-0.191-0.981-0.191h-2.788v4.377H332.938z"/>
		</g>
		<g>
			<path fill="#174EA6" d="M347.04,54.658v-12.92h-4.393v-2.811h11.755v2.811h-4.393v12.92H347.04z"/>
		</g>
		<g>
			<path fill="#174EA6" d="M365.127,55.012c-0.922,0-1.762-0.148-2.518-0.454c-0.755-0.296-1.394-0.732-1.921-1.301
				c-0.53-0.576-0.94-1.27-1.232-2.079c-0.291-0.816-0.438-1.741-0.438-2.78v-9.47h2.965v9.642c0,0.529,0.067,1.011,0.197,1.454
				c0.135,0.438,0.328,0.818,0.597,1.142c0.263,0.323,0.588,0.574,0.986,0.758c0.394,0.184,0.85,0.273,1.363,0.273
				c0.526,0,0.986-0.09,1.382-0.273c0.396-0.185,0.725-0.436,0.988-0.758c0.265-0.324,0.462-0.704,0.595-1.142
				c0.131-0.443,0.2-0.925,0.2-1.454v-9.642h2.965v9.47c0,0.979-0.143,1.88-0.431,2.692c-0.284,0.81-0.694,1.506-1.228,2.085
				c-0.535,0.579-1.179,1.03-1.933,1.351C366.909,54.852,366.061,55.012,365.127,55.012z"/>
		</g>
		<g>
			<path fill="#174EA6" d="M376.925,38.927h3.45l6.329,10.546h0.177l-0.177-3.033v-7.514h2.945v15.731h-3.122l-6.679-11.141h-0.175
				l0.175,3.031v8.11h-2.924V38.927z"/>
		</g>
		<g>
			<path fill="#174EA6" d="M395.671,38.927h2.965v15.731h-2.965V38.927z"/>
		</g>
		<g>
			<path fill="#174EA6" d="M407.996,54.658v-12.92h-4.397v-2.811h11.758v2.811h-4.392v12.92H407.996z"/>
		</g>
		<g>
			<path fill="#174EA6" d="M420.324,38.927h2.967v15.731h-2.967V38.927z"/>
		</g>
		<g>
			<path fill="#174EA6" d="M432.283,41.738v3.647h6.301v2.812h-6.301v3.651h7.007v2.809h-9.976V38.927h9.976v2.811H432.283z"/>
		</g>
		<g>
			<path fill="#174EA6" d="M449.682,55.012c-0.676,0-1.321-0.094-1.933-0.288c-0.618-0.19-1.181-0.477-1.692-0.854
				c-0.511-0.382-0.964-0.848-1.343-1.399c-0.38-0.547-0.679-1.188-0.9-1.919l2.791-1.103c0.206,0.792,0.564,1.444,1.079,1.969
				c0.512,0.521,1.185,0.779,2.02,0.779c0.311,0,0.606-0.039,0.895-0.122c0.278-0.079,0.535-0.197,0.765-0.348
				c0.232-0.156,0.408-0.351,0.539-0.586c0.132-0.234,0.196-0.501,0.196-0.811c0-0.293-0.049-0.558-0.151-0.791
				c-0.102-0.234-0.274-0.453-0.516-0.661c-0.24-0.203-0.559-0.403-0.947-0.593c-0.386-0.191-0.867-0.387-1.439-0.592l-0.967-0.352
				c-0.424-0.149-0.854-0.344-1.284-0.592c-0.437-0.251-0.823-0.552-1.177-0.905c-0.352-0.349-0.644-0.763-0.867-1.239
				c-0.227-0.476-0.341-1.012-0.341-1.617c0-0.615,0.121-1.188,0.363-1.725c0.241-0.535,0.581-1.003,1.034-1.405
				c0.444-0.406,0.978-0.716,1.601-0.947c0.624-0.225,1.319-0.341,2.08-0.341c0.788,0,1.475,0.107,2.049,0.322
				c0.583,0.213,1.072,0.481,1.478,0.811c0.398,0.333,0.728,0.691,0.977,1.088c0.25,0.396,0.433,0.771,0.546,1.123l-2.615,1.096
				c-0.144-0.436-0.408-0.834-0.798-1.189c-0.391-0.346-0.922-0.521-1.595-0.521c-0.644,0-1.183,0.15-1.604,0.447
				c-0.427,0.301-0.637,0.695-0.637,1.177c0,0.47,0.205,0.869,0.615,1.199c0.407,0.33,1.062,0.647,1.959,0.956l0.982,0.331
				c0.632,0.22,1.209,0.472,1.727,0.756c0.521,0.284,0.969,0.626,1.34,1.021c0.373,0.399,0.66,0.847,0.858,1.354
				c0.198,0.503,0.297,1.089,0.297,1.747c0,0.817-0.162,1.526-0.495,2.118c-0.329,0.594-0.753,1.082-1.267,1.464
				c-0.507,0.378-1.087,0.664-1.733,0.854C450.928,54.918,450.295,55.012,449.682,55.012z"/>
		</g>
		<g>
			<path fill="#174EA6" d="M461.746,45.091c-0.529,0-0.978-0.188-1.352-0.562c-0.378-0.373-0.563-0.828-0.563-1.353
				c0-0.527,0.186-0.979,0.563-1.355c0.374-0.369,0.822-0.557,1.352-0.557s0.972,0.188,1.341,0.557
				c0.363,0.377,0.551,0.828,0.551,1.355c0,0.525-0.188,0.98-0.551,1.353C462.718,44.903,462.275,45.091,461.746,45.091z
				 M461.746,52.321c-0.529,0-0.978-0.191-1.352-0.561c-0.378-0.375-0.563-0.826-0.563-1.354c0-0.525,0.186-0.974,0.563-1.339
				c0.374-0.368,0.822-0.549,1.352-0.549s0.972,0.181,1.341,0.549c0.363,0.365,0.551,0.813,0.551,1.339
				c0,0.528-0.188,0.979-0.551,1.354C462.718,52.13,462.275,52.321,461.746,52.321z"/>
		</g>
	</g>
	<g>
		<path fill="#4285F4" d="M406.533,74.508c-2.233,0-4.047-1.812-4.047-4.046c0-2.229,1.813-4.047,4.047-4.047
			c2.228,0,4.047,1.817,4.047,4.047C410.58,72.695,408.761,74.508,406.533,74.508z M406.533,67.388
			c-1.695,0-3.073,1.383-3.073,3.074c0,1.691,1.378,3.069,3.073,3.069c1.696,0,3.07-1.378,3.07-3.069
			C409.604,68.771,408.229,67.388,406.533,67.388z"/>
	</g>
	<g>
		<path fill="#34A853" d="M151.597,8.094c-2.231,0-4.048-1.812-4.048-4.042c0-2.237,1.816-4.051,4.048-4.051
			c2.237,0,4.049,1.814,4.049,4.051C155.646,6.281,153.834,8.094,151.597,8.094z M151.597,0.972c-1.694,0-3.071,1.377-3.071,3.079
			c0,1.693,1.377,3.071,3.071,3.071c1.698,0,3.077-1.378,3.077-3.071C154.674,2.35,153.295,0.972,151.597,0.972z"/>
	</g>
</g>
</svg>
