<?xml version="1.0" encoding="utf-8"?>
<!-- Generator: Adobe Illustrator 15.1.0, SVG Export Plug-In . SVG Version: 6.00 Build 0)  -->
<!DOCTYPE svg PUBLIC "-//W3C//DTD SVG 1.1//EN" "http://www.w3.org/Graphics/SVG/1.1/DTD/svg11.dtd">
<svg version="1.1" id="Layer_1" xmlns="http://www.w3.org/2000/svg" xmlns:xlink="http://www.w3.org/1999/xlink" x="0px" y="0px"
	 width="59px" height="73px" viewBox="0 0 59 73" enable-background="new 0 0 59 73" xml:space="preserve">
<rect fill="#FCE387" width="36" height="73"/>
<path fill="#DF7600" d="M59,49L59,49H15V38.985c1.981-0.245,3.475-1.743,3.475-3.485S16.98,32.259,15,32.014V22h44v10.014
	c-1.98,0.246-3.474,1.744-3.474,3.486c0,1.74,1.493,3.239,3.474,3.485V49L59,49z M58,48v-8.205c-2.031-0.6-3.474-2.324-3.474-4.295
	c0-1.972,1.442-3.697,3.474-4.297V23H16v8.203c2.031,0.6,3.475,2.324,3.475,4.297c0,1.972-1.443,3.696-3.475,4.296V48H58"/>
<rect x="45.27" y="22.596" fill="#DF7600" width="1" height="2"/>
<rect x="45.27" y="26.596" fill="#DF7600" width="1" height="2"/>
<rect x="45.27" y="30.596" fill="#DF7600" width="1" height="2"/>
<rect x="45.27" y="34.596" fill="#DF7600" width="1" height="2"/>
<rect x="45.27" y="38.596" fill="#DF7600" width="1" height="2"/>
<rect x="45.27" y="42.596" fill="#DF7600" width="1" height="2"/>
<rect x="45.27" y="46.596" fill="#DF7600" width="1" height="2"/>
</svg>
