<?xml version="1.0" encoding="utf-8"?>
<!-- Generator: Adobe Illustrator 15.1.0, SVG Export Plug-In . SVG Version: 6.00 Build 0)  -->
<!DOCTYPE svg PUBLIC "-//W3C//DTD SVG 1.1//EN" "http://www.w3.org/Graphics/SVG/1.1/DTD/svg11.dtd">
<svg version="1.1" id="Layer_1" xmlns="http://www.w3.org/2000/svg" xmlns:xlink="http://www.w3.org/1999/xlink" x="0px" y="0px"
	 width="54px" height="54px" viewBox="0 0 54 54" enable-background="new 0 0 54 54" xml:space="preserve">
<path fill="#ABDAB1" d="M27,0c1.773,0,3.529,0.173,5.268,0.519s3.427,0.858,5.064,1.536C38.971,2.733,40.526,3.565,42,4.551
	c1.475,0.984,2.838,2.104,4.092,3.357s2.373,2.617,3.357,4.092c0.985,1.474,1.816,3.029,2.496,4.668
	c0.678,1.638,1.189,3.326,1.535,5.064C53.827,23.471,54,25.227,54,27c0,1.772-0.173,3.528-0.52,5.268
	c-0.346,1.738-0.857,3.427-1.535,5.064c-0.68,1.639-1.511,3.194-2.496,4.668c-0.984,1.475-2.104,2.838-3.357,4.092
	S43.475,48.465,42,49.449c-1.474,0.985-3.029,1.816-4.668,2.495c-1.638,0.679-3.326,1.19-5.064,1.536C30.529,53.827,28.773,54,27,54
	c-1.773,0-3.529-0.173-5.268-0.52c-1.739-0.346-3.427-0.857-5.065-1.536c-1.638-0.679-3.194-1.51-4.668-2.495
	c-1.474-0.984-2.838-2.104-4.091-3.357C6.654,44.838,5.535,43.475,4.55,42c-0.985-1.474-1.816-3.029-2.495-4.668
	c-0.678-1.638-1.19-3.326-1.537-5.064C0.173,30.528,0,28.772,0,27c0-1.773,0.173-3.529,0.519-5.268
	c0.346-1.738,0.858-3.427,1.537-5.064C2.734,15.029,3.565,13.474,4.55,12c0.985-1.475,2.104-2.838,3.358-4.092
	C9.162,6.654,10.525,5.535,12,4.551c1.474-0.985,3.03-1.817,4.668-2.496c1.638-0.678,3.326-1.19,5.065-1.536S25.227,0,27,0z"/>
<path fill="#41A944" d="M41.435,27.623L18.173,41.435V13.812L41.435,27.623z M39.477,27.623L19.173,15.568v24.109L39.477,27.623"/>
</svg>
