<?xml version="1.0" encoding="utf-8"?>
<!-- Generator: Adobe Illustrator 15.1.0, SVG Export Plug-In . SVG Version: 6.00 Build 0)  -->
<!DOCTYPE svg PUBLIC "-//W3C//DTD SVG 1.1//EN" "http://www.w3.org/Graphics/SVG/1.1/DTD/svg11.dtd">
<svg version="1.1" id="Layer_1" xmlns="http://www.w3.org/2000/svg" xmlns:xlink="http://www.w3.org/1999/xlink" x="0px" y="0px"
	 width="36px" height="36px" viewBox="0 0 36 36" enable-background="new 0 0 36 36" xml:space="preserve">
<path fill="#FABB04" d="M18,0.596c2.776,0,5.747,6.994,5.747,17.405c0,10.411-2.971,17.402-5.747,17.402
	c-2.777,0-5.749-6.991-5.749-17.402C12.251,7.589,15.223,0.596,18,0.596 M18,0.001c-3.464,0-6.273,8.059-6.273,18
	c0,9.941,2.809,17.998,6.273,17.998c3.466,0,6.271-8.057,6.271-17.998C24.271,8.06,21.466,0.001,18,0.001"/>
<line fill="none" stroke="#FABB04" stroke-width="0.73" x1="0.841" y1="12.001" x2="35.158" y2="12.001"/>
<path fill="#FABB04" d="M18,0.596c9.597,0,17.402,7.807,17.402,17.405c0,9.597-7.806,17.402-17.402,17.402
	S0.597,27.598,0.597,18.001C0.597,8.403,8.403,0.596,18,0.596 M18,0.001c-9.939,0-18,8.059-18,18c0,9.941,8.061,17.998,18,17.998
	c9.941,0,18-8.057,18-17.998C36,8.06,27.941,0.001,18,0.001"/>
<line fill="none" stroke="#FABB04" stroke-width="0.73" x1="0.937" y1="24" x2="35.061" y2="24"/>
</svg>
