<?xml version="1.0" encoding="utf-8"?>
<!-- Generator: Adobe Illustrator 15.1.0, SVG Export Plug-In . SVG Version: 6.00 Build 0)  -->
<!DOCTYPE svg PUBLIC "-//W3C//DTD SVG 1.1//EN" "http://www.w3.org/Graphics/SVG/1.1/DTD/svg11.dtd">
<svg version="1.1" id="Layer_1" xmlns="http://www.w3.org/2000/svg" xmlns:xlink="http://www.w3.org/1999/xlink" x="0px" y="0px"
	 width="300px" height="60px" viewBox="0 20 300 60" enable-background="new 0 20 300 60" xml:space="preserve">
<g>
	<path fill="#CBB677" d="M36.205,45.888c-0.7-2.781-1.722-5.001-3.057-6.662c-1.338-1.664-3.105-3.001-5.307-4.021
		c-2.197-1.018-4.511-1.523-6.937-1.523c-3.997,0-7.435,1.275-10.312,3.836c-2.099,1.854-3.686,4.648-4.759,8.371L36.205,45.888
		L36.205,45.888z M36.205,56.821l4.408,2.319c-1.448,2.823-3.12,5.115-5.018,6.851c-1.888,1.733-4.019,3.061-6.387,3.963
		c-2.373,0.906-5.05,1.359-8.046,1.359c-6.628,0-11.814-2.163-15.554-6.503C1.873,60.476,0,55.579,0,50.116
		c0-5.146,1.583-9.73,4.745-13.746c4.015-5.123,9.386-7.683,16.116-7.683c6.923,0,12.456,2.621,16.592,7.858
		c2.942,3.696,4.438,8.316,4.485,13.854H5.311c0.098,4.7,1.611,8.565,4.537,11.573c2.923,3.006,6.534,4.511,10.837,4.511
		c2.073,0,4.09-0.355,6.054-1.073c1.964-0.714,3.63-1.669,5.009-2.851C33.118,61.376,34.604,59.464,36.205,56.821"/>
	<path fill="#CBB677" d="M50.064,29.696h5.203v7.017c1.82-2.585,3.689-4.475,5.608-5.671c2.643-1.57,5.422-2.354,8.34-2.354
		c1.966,0,3.837,0.385,5.605,1.16c1.77,0.771,3.217,1.798,4.338,3.074c1.122,1.285,2.093,3.117,2.918,5.502
		c1.739-3.183,3.918-5.6,6.53-7.258c2.613-1.648,5.422-2.479,8.434-2.479c2.811,0,5.293,0.71,7.443,2.129
		c2.149,1.416,3.744,3.394,4.795,5.925c1.044,2.534,1.564,6.342,1.564,11.413v22.149h-5.362v-22.13c0-4.354-0.309-7.343-0.931-8.973
		c-0.623-1.624-1.686-2.935-3.183-3.93c-1.506-0.995-3.303-1.49-5.39-1.49c-2.532,0-4.853,0.749-6.947,2.233
		c-2.104,1.5-3.635,3.482-4.604,5.967c-0.968,2.481-1.455,6.633-1.455,12.448v15.873h-5.199V49.551c0-4.9-0.306-8.218-0.919-9.97
		c-0.606-1.755-1.674-3.16-3.195-4.211c-1.521-1.062-3.326-1.587-5.417-1.587c-2.419,0-4.683,0.727-6.79,2.183
		c-2.105,1.45-3.66,3.408-4.677,5.866c-1.006,2.462-1.508,6.229-1.508,11.292v17.181h-5.203V29.696H50.064z"/>
	<path fill="#CBB677" d="M139.845,33.734c-2.909,0-5.592,0.703-8.057,2.128c-2.463,1.428-4.413,3.432-5.87,6.014
		c-1.449,2.574-2.176,5.305-2.176,8.18c0,2.846,0.729,5.576,2.195,8.169c1.468,2.612,3.438,4.639,5.908,6.085
		c2.477,1.454,5.126,2.175,7.962,2.175c2.857,0,5.564-0.716,8.118-2.163c2.562-1.428,4.532-3.379,5.916-5.825
		c1.376-2.453,2.068-5.227,2.068-8.292c0-4.688-1.548-8.604-4.646-11.747C148.174,35.302,144.366,33.734,139.845,33.734
		 M160.74,29.696v40.607h-5.148v-6.979c-2.191,2.667-4.648,4.661-7.38,5.99c-2.727,1.335-5.705,1.999-8.942,1.999
		c-5.755,0-10.661-2.077-14.733-6.237c-4.072-4.162-6.108-9.223-6.108-15.188c0-5.838,2.059-10.832,6.164-14.979
		c4.106-4.15,9.054-6.224,14.829-6.224c3.336,0,6.352,0.704,9.056,2.108c2.699,1.407,5.068,3.526,7.115,6.368v-7.467H160.74z"/>
	<path fill="#CBB677" d="M170.975,29.696h5.202v7.277c2.093-2.787,4.405-4.864,6.947-6.23c2.538-1.367,5.306-2.056,8.291-2.056
		c3.035,0,5.728,0.771,8.077,2.312c2.354,1.545,4.095,3.622,5.212,6.229c1.116,2.606,1.678,6.675,1.678,12.196v20.88h-5.2V50.961
		c0-4.669-0.199-7.786-0.592-9.356c-0.615-2.679-1.783-4.701-3.499-6.055c-1.718-1.354-3.954-2.031-6.725-2.031
		c-3.162,0-5.989,1.045-8.49,3.134c-2.502,2.083-4.16,4.674-4.953,7.75c-0.491,2.016-0.746,5.689-0.746,11.032v14.87h-5.202V29.696z
		"/>
	<path fill="#CBB677" d="M235.26,33.783c-4.343,0-8.062,1.602-11.178,4.804c-3.114,3.209-4.674,7.074-4.674,11.619
		c0,2.924,0.71,5.662,2.132,8.188c1.419,2.527,3.337,4.49,5.753,5.863c2.422,1.379,5.071,2.064,7.967,2.064
		c2.887,0,5.538-0.687,7.958-2.064c2.416-1.373,4.337-3.336,5.759-5.863c1.418-2.526,2.129-5.266,2.129-8.188
		c0-4.545-1.57-8.41-4.693-11.619C243.282,35.385,239.568,33.783,235.26,33.783 M235.275,28.688c6.246,0,11.427,2.267,15.531,6.781
		c3.735,4.123,5.604,8.998,5.604,14.646c0,5.662-1.978,10.614-5.921,14.844c-3.949,4.232-9.018,6.354-15.215,6.354
		c-6.229,0-11.312-2.12-15.258-6.354c-3.94-4.229-5.916-9.182-5.916-14.844c0-5.617,1.864-10.48,5.601-14.609
		C223.812,30.965,229.002,28.688,235.275,28.688"/>
	<path fill="#CBB677" d="M264.59,29.696h5.202v7.277c2.092-2.787,4.406-4.864,6.946-6.23c2.535-1.367,5.3-2.056,8.283-2.056
		c3.039,0,5.729,0.771,8.086,2.312c2.352,1.545,4.09,3.622,5.211,6.229c1.117,2.606,1.682,6.675,1.682,12.196v20.88h-5.208V50.961
		c0-4.669-0.192-7.786-0.587-9.356c-0.615-2.679-1.784-4.701-3.505-6.055c-1.716-1.354-3.955-2.031-6.72-2.031
		c-3.162,0-5.996,1.045-8.498,3.134c-2.494,2.083-4.151,4.674-4.943,7.75c-0.499,2.016-0.747,5.689-0.747,11.032v14.87h-5.202
		V29.696L264.59,29.696z"/>
</g>
</svg>
