<?xml version="1.0" encoding="utf-8"?>
<!-- Generator: Adobe Illustrator 15.1.0, SVG Export Plug-In . SVG Version: 6.00 Build 0)  -->
<!DOCTYPE svg PUBLIC "-//W3C//DTD SVG 1.1//EN" "http://www.w3.org/Graphics/SVG/1.1/DTD/svg11.dtd">
<svg version="1.1" id="Layer_1" xmlns="http://www.w3.org/2000/svg" xmlns:xlink="http://www.w3.org/1999/xlink" x="0px" y="0px"
	 width="300px" height="100px" viewBox="-95 -20 300 100" enable-background="new -95 -20 300 100" xml:space="preserve">
<g>
	<path fill="#EA4535" d="M33.378,32.596c0,14.201-11.111,24.678-24.753,24.678c-13.643,0-24.753-10.477-24.753-24.678
		c0-14.309,11.11-24.684,24.753-24.684C22.267,7.912,33.378,18.287,33.378,32.596z M22.547,32.596c0-8.871-6.44-14.954-13.92-14.954
		c-7.484,0-13.919,6.08-13.919,14.954c0,8.793,6.435,14.949,13.919,14.949C16.104,47.545,22.547,41.371,22.547,32.596z"/>
	<path fill="#F6B917" d="M86.781,32.596c0,14.201-11.121,24.678-24.753,24.678c-13.642,0-24.753-10.477-24.753-24.678
		c0-14.299,11.111-24.684,24.753-24.684C75.66,7.912,86.781,18.287,86.781,32.596z M75.941,32.596
		c0-8.871-6.441-14.954-13.913-14.954c-7.478,0-13.919,6.08-13.919,14.954c0,8.793,6.441,14.949,13.919,14.949
		C69.5,47.545,75.941,41.371,75.941,32.596z"/>
	<path fill="#547EBF" d="M137.959,9.408v44.303c0,18.227-10.749,25.666-23.457,25.666c-11.955,0-19.162-7.996-21.865-14.539
		l9.421-3.925c1.689,4.007,5.805,8.751,12.438,8.751c8.131,0,13.17-5.012,13.17-14.472V51.65h-0.371
		c-2.43,2.99-7.109,5.608-12.993,5.608c-12.346,0-23.646-10.749-23.646-24.584c0-13.924,11.301-24.77,23.646-24.77
		c5.873,0,10.552,2.618,12.993,5.521h0.371V9.414h10.29V9.408H137.959z M128.438,32.68c0-8.688-5.794-15.035-13.176-15.035
		c-7.478,0-13.739,6.348-13.739,15.035c0,8.607,6.262,14.865,13.739,14.865C122.644,47.545,128.438,41.287,128.438,32.68z"/>
	<path fill="#35A851" d="M154.925-16.548v72.304h-10.563v-72.304H154.925z"/>
	<path fill="#EA4535" d="M196.12,40.715l8.4,5.601c-2.705,4.022-9.257,10.948-20.552,10.948c-14.026,0-24.5-10.836-24.5-24.685
		c0-14.667,10.569-24.667,23.283-24.667c12.805,0,19.066,10.179,21.116,15.7l1.132,2.8L172.003,40.07
		c2.534,4.953,6.459,7.475,11.966,7.475C189.486,47.545,193.31,44.832,196.12,40.715L196.12,40.715z M170.218,31.842l22.051-9.149
		c-1.208-3.091-4.862-5.248-9.147-5.248C177.611,17.442,169.942,22.311,170.218,31.842z"/>
	<path fill="#547EBF" d="M-56.138,26.17V15.707h35.286c0.333,1.826,0.515,3.988,0.515,6.311c0,7.856-2.146,17.573-9.07,24.493
		c-6.723,7.016-15.325,10.752-26.714,10.752C-77.248,57.262-95,40.051-95,18.93c0-21.106,17.752-38.307,38.879-38.307
		c11.679,0,20.002,4.581,26.249,10.566l-7.386,7.383c-4.483-4.204-10.563-7.475-18.88-7.475c-15.419,0-27.479,12.419-27.479,27.832
		c0,15.428,12.062,27.855,27.479,27.855c10.006,0,15.697-4.02,19.342-7.663c2.96-2.956,4.908-7.185,5.687-12.974L-56.138,26.17z"/>
</g>
</svg>
