<?xml version="1.0" encoding="utf-8"?>
<!-- Generator: Adobe Illustrator 15.1.0, SVG Export Plug-In . SVG Version: 6.00 Build 0)  -->
<!DOCTYPE svg PUBLIC "-//W3C//DTD SVG 1.1//EN" "http://www.w3.org/Graphics/SVG/1.1/DTD/svg11.dtd">
<svg version="1.1" id="Layer_1" xmlns="http://www.w3.org/2000/svg" xmlns:xlink="http://www.w3.org/1999/xlink" x="0px" y="0px"
	 width="300px" height="70px" viewBox="0 15 300 70" enable-background="new 0 15 300 70" xml:space="preserve">
<g>
	<g>
		<g>
			<defs>
				<path id="SVGID_1_" d="M46.113,57.884l-2.305,5.733l-2.306-5.733h-2.831v9.489h2.02v-6.645l2.676,6.645h0.882l2.675-6.645v6.645
					h2.034v-9.489H46.113z M14.085,62.637c0-1.779,1.124-3.117,2.874-3.117c1.749,0,2.888,1.338,2.888,3.117
					c0,1.764-1.139,3.115-2.888,3.115C15.209,65.752,14.085,64.399,14.085,62.637 M12.008,62.637c0,2.858,2.092,4.907,4.951,4.907
					c2.873,0,4.965-2.049,4.965-4.907c0-2.861-2.092-4.909-4.965-4.909C14.1,57.728,12.008,59.774,12.008,62.637 M27.417,62.637
					c0-1.779,1.124-3.117,2.874-3.117c1.749,0,2.888,1.338,2.888,3.117c0,1.764-1.139,3.115-2.888,3.115
					C28.541,65.752,27.417,64.399,27.417,62.637 M25.34,62.637c0,2.858,2.091,4.907,4.951,4.907c2.874,0,4.965-2.049,4.965-4.907
					c0-2.861-2.091-4.909-4.965-4.909C27.431,57.728,25.34,59.774,25.34,62.637 M13.608,45.248v9.488h6.715V52.96h-4.694v-2.148
					h4.595v-1.777h-4.595v-2.008h4.694v-1.777L13.608,45.248L13.608,45.248z M32.524,45.248v5.962l-4.396-5.962h-2.077v9.488h2.02
					v-6.188l4.524,6.188h1.948v-9.488H32.524z M41.994,47.025h2.119c0.812,0,1.423,0.484,1.423,1.281c0,0.796-0.611,1.28-1.423,1.28
					h-2.119V47.025z M39.974,45.248v9.488h2.021v-3.37h1.479l1.863,3.37h2.32l-2.135-3.612c1.024-0.242,2.077-1.139,2.077-2.816
					c0-1.765-1.209-3.06-3.187-3.06H39.974z M28.477,34.392h2.12c0.811,0,1.422,0.483,1.422,1.28s-0.611,1.28-1.422,1.28h-2.12
					V34.392z M26.457,32.611v9.489h2.02v-3.371h1.479l1.864,3.371h2.319l-2.134-3.611c1.023-0.243,2.076-1.14,2.076-2.817
					c0-1.765-1.209-3.061-3.187-3.061H26.457z M40.458,32.611v9.489h6.715v-1.776h-4.695v-2.148h4.596v-1.778h-4.596v-2.006h4.695
					v-1.779L40.458,32.611L40.458,32.611z M12.421,37.364c0,2.987,2.275,4.923,5.05,4.923c1.722,0,3.073-0.712,4.04-1.793v-3.643
					h-4.523v1.765h2.504v1.139c-0.385,0.355-1.181,0.726-2.021,0.726c-1.721,0-2.973-1.322-2.973-3.115
					c0-1.792,1.252-3.115,2.973-3.115c1.011,0,1.821,0.568,2.248,1.236l1.679-0.91c-0.711-1.123-1.949-2.119-3.927-2.119
					C14.696,32.456,12.421,34.361,12.421,37.364 M2.613,22.13h55.74v55.74H2.613V22.13z M0,80.482h60.966V19.518H0V80.482z"/>
			</defs>
			<clipPath id="SVGID_2_">
				<use xlink:href="#SVGID_1_"  overflow="visible"/>
			</clipPath>
			
				<linearGradient id="SVGID_3_" gradientUnits="userSpaceOnUse" x1="-247.981" y1="-323.7197" x2="-247.8354" y2="-323.7197" gradientTransform="matrix(420 420 -420 420 -31810.5 240134)">
				<stop  offset="0" style="stop-color:#07E1FD"/>
				<stop  offset="0.2456" style="stop-color:#05D6DF"/>
				<stop  offset="0.5568" style="stop-color:#02CABF"/>
				<stop  offset="0.8194" style="stop-color:#01C3AC"/>
				<stop  offset="1" style="stop-color:#00C0A5"/>
			</linearGradient>
			<polygon clip-path="url(#SVGID_2_)" fill="url(#SVGID_3_)" points="30.483,-10.965 91.448,50 30.483,110.966 -30.482,50 			"/>
		</g>
	</g>
	<g>
		<path fill="#00C0A5" d="M92.078,59.645c-0.897,1.285-2.148,2.245-3.754,2.882c-1.605,0.637-3.475,0.954-5.607,0.954
			c-2.157,0-4.072-0.506-5.744-1.518c-1.672-1.012-2.966-2.451-3.881-4.317s-1.385-4.028-1.408-6.488v-2.31
			c0-3.986,0.93-7.076,2.79-9.27c1.859-2.193,4.474-3.29,7.843-3.29c2.763,0,4.986,0.706,6.671,2.116
			c1.685,1.412,2.715,3.414,3.091,6.009h-3.49c-0.654-3.516-2.739-5.271-6.253-5.271c-2.339,0-4.111,0.821-5.316,2.465
			c-1.206,1.645-1.815,4.023-1.827,7.142v2.165c0,2.971,0.679,5.333,2.036,7.086c1.356,1.752,3.192,2.629,5.507,2.629
			c1.31,0,2.454-0.146,3.436-0.437s1.794-0.779,2.437-1.469v-5.931h-6.126v-2.854h9.598v9.707H92.078z"/>
		<path fill="#00C0A5" d="M107.675,52.41h-6.216v10.707H97.95V36.65h8.762c2.98,0,5.274,0.68,6.88,2.035
			c1.605,1.358,2.408,3.334,2.408,5.926c0,1.648-0.445,3.084-1.336,4.31c-0.891,1.224-2.13,2.139-3.717,2.744l6.217,11.232v0.22
			h-3.745L107.675,52.41z M101.459,49.557h5.362c1.732,0,3.11-0.449,4.135-1.348c1.024-0.897,1.536-2.101,1.536-3.605
			c0-1.639-0.488-2.895-1.463-3.77c-0.977-0.874-2.385-1.316-4.227-1.329h-5.343V49.557z"/>
		<path fill="#00C0A5" d="M135.924,50.884h-11.47v9.379h13.323v2.854h-16.813V36.65h16.632v2.854h-13.142v8.524h11.47V50.884z"/>
		<path fill="#00C0A5" d="M157.156,50.884h-11.47v9.379h13.324v2.854h-16.814V36.65h16.632v2.854h-13.141v8.524h11.47
			L157.156,50.884L157.156,50.884z"/>
		<path fill="#00C0A5" d="M183.77,63.117h-3.509l-13.323-20.395v20.396h-3.508V36.65h3.508l13.359,20.485V36.65h3.473V63.117
			L183.77,63.117z"/>
		<path fill="#00C0A5" d="M209.038,52.41h-6.218v10.707h-3.508V36.65h8.762c2.98,0,5.273,0.68,6.881,2.035
			c1.605,1.357,2.408,3.333,2.408,5.926c0,1.648-0.445,3.084-1.336,4.31c-0.892,1.224-2.131,2.139-3.719,2.744l6.217,11.232v0.22
			h-3.743L209.038,52.41z M202.82,49.557h5.363c1.732,0,3.11-0.449,4.135-1.348c1.023-0.897,1.537-2.101,1.537-3.605
			c0-1.639-0.488-2.895-1.465-3.77c-0.976-0.874-2.384-1.316-4.226-1.329h-5.345V49.557L202.82,49.557z"/>
		<path fill="#00C0A5" d="M242.686,50.737c0,2.595-0.437,4.856-1.309,6.789c-0.873,1.934-2.107,3.408-3.708,4.427
			s-3.466,1.526-5.599,1.526c-2.086,0-3.934-0.512-5.545-1.536c-1.611-1.023-2.862-2.483-3.754-4.381
			c-0.891-1.896-1.348-4.093-1.371-6.589v-1.908c0-2.545,0.441-4.793,1.326-6.744c0.885-1.95,2.137-3.443,3.754-4.479
			s3.469-1.554,5.554-1.554c2.12,0,3.989,0.512,5.606,1.535s2.862,2.509,3.735,4.453c0.872,1.944,1.31,4.208,1.31,6.789V50.737
			L242.686,50.737z M239.214,49.028c0-3.138-0.631-5.547-1.891-7.225c-1.261-1.679-3.023-2.518-5.289-2.518
			c-2.206,0-3.942,0.839-5.208,2.518c-1.268,1.678-1.918,4.008-1.954,6.988v1.944c0,3.042,0.64,5.433,1.918,7.172
			c1.278,1.738,3.038,2.607,5.28,2.607c2.254,0,3.998-0.821,5.234-2.463c1.235-1.642,1.871-3.996,1.908-7.062L239.214,49.028
			L239.214,49.028z"/>
		<path fill="#00C0A5" d="M268.354,50.737c0,2.595-0.438,4.856-1.31,6.789c-0.872,1.934-2.108,3.408-3.708,4.427
			s-3.466,1.526-5.6,1.526c-2.084,0-3.932-0.512-5.543-1.536c-1.611-1.023-2.863-2.483-3.754-4.381
			c-0.892-1.896-1.349-4.093-1.373-6.589v-1.908c0-2.545,0.442-4.793,1.328-6.744c0.885-1.95,2.135-3.443,3.754-4.479
			c1.617-1.036,3.468-1.554,5.553-1.554c2.119,0,3.99,0.512,5.607,1.535s2.862,2.509,3.734,4.453s1.309,4.208,1.309,6.789v1.672
			H268.354z M264.881,49.028c0-3.138-0.63-5.547-1.891-7.225c-1.26-1.679-3.023-2.518-5.289-2.518c-2.206,0-3.941,0.839-5.208,2.518
			c-1.267,1.678-1.917,4.008-1.954,6.988v1.944c0,3.042,0.641,5.433,1.918,7.172c1.277,1.738,3.038,2.607,5.279,2.607
			c2.255,0,4-0.821,5.236-2.463c1.234-1.642,1.871-3.996,1.907-7.062L264.881,49.028L264.881,49.028z"/>
		<path fill="#00C0A5" d="M278.17,36.65l8.652,21.595l8.652-21.595H300v26.467h-3.488V52.811l0.326-11.124l-8.688,21.432h-2.672
			l-8.672-21.376l0.346,11.068v10.308h-3.489V36.65H278.17z"/>
	</g>
</g>
</svg>
