<?xml version="1.0" encoding="utf-8"?>
<!-- Generator: Adobe Illustrator 22.1.0, SVG Export Plug-In . SVG Version: 6.00 Build 0)  -->
<svg version="1.1" id="Layer_1" xmlns="http://www.w3.org/2000/svg" xmlns:xlink="http://www.w3.org/1999/xlink" x="0px" y="0px"
	 viewBox="0 0 132 19.6" style="enable-background:new 0 0 132 19.6;" xml:space="preserve">
<style type="text/css">
	.st0{enable-background:new    ;}
	.st1{fill:#222633;}
	.st2{fill:#FBD502;}
</style>
<g>
	<g class="st0">
		<g>
			<path class="st1" d="M94.1,14.9H96c0.1,0,0.2-0.1,0.2-0.2V8.5c0-1.3-0.3-2.4-1-3.1c-0.7-0.7-1.7-1.1-2.9-1.1
				c-0.7,0-1.3,0.2-1.9,0.5c-0.3,0.2-0.6,0.4-0.9,0.6l-0.3,0.3V4.8c0-0.1-0.1-0.2-0.2-0.2h-1.8C87,4.6,87,4.7,87,4.8v10
				c0,0.1,0.1,0.2,0.2,0.2H89c0.1,0,0.2-0.1,0.2-0.2V9.2c0-0.8,0.2-1.5,0.7-2.1c0.5-0.6,1-0.8,1.7-0.8c1.5,0,2.3,0.7,2.3,2.3v6.1
				C93.9,14.8,94,14.9,94.1,14.9"/>
			<path class="st1" d="M84.4,12.4c0,0,0-0.1,0-0.1c0,0,0-0.1-0.1-0.1l-1.7-0.8c-0.1,0-0.2,0-0.2,0.1c-0.7,1.1-1.5,1.7-2.7,1.7
				c-0.8,0-1.5-0.3-2.1-0.8c-0.5-0.5-0.8-1.1-0.9-1.9l0-0.2h7.7c0.1,0,0.2-0.1,0.2-0.1l0-0.2c0-1.7-0.5-3.1-1.4-4.1
				c-0.9-1-2.1-1.5-3.7-1.5c-1.5,0-2.7,0.5-3.7,1.6c-0.9,1-1.4,2.4-1.4,3.9c0,1.6,0.5,2.9,1.5,3.9c1,1,2.2,1.6,3.7,1.6
				c1,0,2-0.2,2.8-0.7C83.3,14,83.9,13.3,84.4,12.4 M77,8.2c0.2-0.5,0.4-0.9,0.8-1.2c0.5-0.4,1-0.6,1.7-0.6c0.8,0,1.5,0.2,1.9,0.6
				c0.4,0.3,0.6,0.7,0.7,1.2l0,0.2h-5.3L77,8.2z"/>
			<path class="st1" d="M71.2,5.9c-0.9-1.1-2.1-1.6-3.5-1.6c-0.8,0-1.5,0.2-2.1,0.5c-0.4,0.2-0.7,0.4-1,0.7l-0.3,0.3V4.8
				c0-0.1-0.1-0.2-0.2-0.2h-1.8c-0.1,0-0.2,0.1-0.2,0.2v14.4c0,0.1,0.1,0.2,0.2,0.2h1.9c0.1,0,0.2-0.1,0.2-0.2l0-4.4l0-0.9l0.3,0.3
				c0.3,0.2,0.6,0.5,0.9,0.6c0.6,0.3,1.3,0.5,2.1,0.5c1.4,0,2.5-0.5,3.5-1.6c1-1.1,1.4-2.4,1.4-3.9C72.7,8.2,72.2,6.9,71.2,5.9
				 M69.6,12.2c-0.6,0.6-1.3,1-2.1,1c-0.9,0-1.6-0.3-2.1-0.9c-0.6-0.7-0.9-1.5-0.9-2.5c0-1,0.3-1.8,0.8-2.5c0.6-0.6,1.3-1,2.2-1
				c0.8,0,1.5,0.3,2.1,1c0.6,0.7,0.9,1.5,0.9,2.5C70.4,10.8,70.2,11.6,69.6,12.2"/>
			<path class="st1" d="M117.4,14.9h1.9c0.1,0,0.2-0.1,0.2-0.2V8.5c0-1.3-0.3-2.4-1-3.1c-0.7-0.7-1.7-1.1-2.9-1.1
				c-0.7,0-1.3,0.2-1.9,0.5c-0.3,0.2-0.6,0.4-0.9,0.6l-0.3,0.3V4.8c0-0.1-0.1-0.2-0.2-0.2h-1.8c-0.1,0-0.2,0.1-0.2,0.2v10
				c0,0.1,0.1,0.2,0.2,0.2h1.9c0.1,0,0.2-0.1,0.2-0.2V9.2c0-0.8,0.2-1.5,0.7-2.1c0.5-0.6,1-0.8,1.7-0.8c1.5,0,2.3,0.7,2.3,2.3v6.1
				C117.2,14.8,117.3,14.9,117.4,14.9"/>
			<path class="st1" d="M132,4.8c0-0.1-0.1-0.2-0.2-0.2H130c-0.1,0-0.2,0.1-0.2,0.2v1l-0.3-0.3c-0.3-0.3-0.6-0.5-1-0.7
				c-0.6-0.3-1.3-0.5-2-0.5c-1.3,0-2.5,0.5-3.5,1.6c-0.9,1.1-1.4,2.4-1.4,3.9c0,1.5,0.5,2.8,1.4,3.9c1,1,2.1,1.6,3.5,1.6
				c0.7,0,1.4-0.2,2-0.5c0.4-0.2,0.7-0.4,1-0.7l0.3-0.3v0.5c0,1-0.3,1.8-0.8,2.4c-0.5,0.6-1.3,0.9-2.3,0.9c-0.6,0-1.2-0.2-1.7-0.5
				c-0.5-0.3-0.8-0.8-1-1.3c0,0,0-0.1-0.1-0.1c0,0,0,0-0.1,0c0,0,0,0-0.1,0l-1.8,0.7c-0.1,0-0.1,0.1-0.1,0.2
				c0.2,0.4,0.4,0.9,0.7,1.2c0.3,0.4,0.7,0.7,1.1,0.9c0.4,0.3,0.9,0.5,1.4,0.6c0.5,0.1,1,0.2,1.6,0.2c1.6,0,2.8-0.5,3.8-1.4
				c0.9-0.9,1.4-2.2,1.4-3.9V4.8z M129,12.2c-0.6,0.6-1.2,0.9-2.1,0.9c-0.9,0-1.6-0.3-2.1-1c-0.6-0.6-0.9-1.4-0.9-2.5
				c0-1,0.3-1.8,0.9-2.5c0.6-0.6,1.3-1,2.1-1c0.9,0,1.6,0.3,2.1,1c0.6,0.7,0.9,1.5,0.9,2.5C129.9,10.8,129.6,11.6,129,12.2"/>
			<path class="st1" d="M105.5,14.9h1.8c0.1,0,0.2-0.1,0.2-0.2V8.6c0-1.3-0.4-2.4-1.3-3.2c-0.8-0.8-2-1.2-3.4-1.2
				c-1.8,0-3.2,0.7-4.2,2c0,0,0,0.1,0,0.1c0,0,0,0.1,0.1,0.1l1.6,1c0.1,0,0.2,0,0.2,0c0.6-0.8,1.4-1.3,2.3-1.3
				c0.7,0,1.2,0.2,1.7,0.6c0.5,0.4,0.7,0.9,0.7,1.4l0,0.2l-0.2-0.1c-0.7-0.3-1.4-0.4-2.4-0.4c-1.3,0-2.4,0.3-3.2,1
				c-0.8,0.6-1.2,1.5-1.2,2.6c0,1,0.4,1.9,1.2,2.6c0.8,0.7,1.7,1,2.9,1c1.1,0,2-0.4,2.7-1.2l0.3-0.3v1
				C105.4,14.8,105.4,14.9,105.5,14.9 M105.4,10.6c0,0.7-0.3,1.3-0.9,1.8c-0.6,0.6-1.2,0.8-2,0.8c-0.5,0-1-0.1-1.4-0.5
				c-0.4-0.3-0.6-0.7-0.6-1.1c0-0.5,0.2-0.9,0.7-1.2c0.5-0.3,1.1-0.5,1.8-0.5c0.9,0,1.7,0.2,2.2,0.6L105.4,10.6L105.4,10.6z"/>
			<path class="st1" d="M31.4,5.9c-0.9-1.1-2.1-1.6-3.5-1.6c-0.8,0-1.5,0.2-2.1,0.5c-0.4,0.2-0.7,0.4-1,0.7l-0.3,0.3V4.8
				c0-0.1-0.1-0.2-0.2-0.2h-1.8c-0.1,0-0.2,0.1-0.2,0.2v14.4c0,0.1,0.1,0.2,0.2,0.2h1.9c0.1,0,0.2-0.1,0.2-0.2v-4.4l-0.1-0.9
				l0.3,0.3c0.3,0.2,0.6,0.5,0.9,0.6c0.6,0.3,1.3,0.5,2.1,0.5c1.4,0,2.5-0.5,3.5-1.6c1-1.1,1.4-2.4,1.4-3.9
				C32.8,8.2,32.3,6.9,31.4,5.9 M29.7,12.2c-0.6,0.6-1.3,1-2.1,1c-0.9,0-1.6-0.3-2.2-0.9c-0.6-0.7-0.9-1.5-0.9-2.5
				c0-1,0.3-1.8,0.8-2.5c0.6-0.6,1.3-1,2.2-1c0.8,0,1.5,0.3,2.1,1c0.6,0.7,0.9,1.5,0.9,2.5C30.6,10.8,30.3,11.6,29.7,12.2"/>
			<path class="st1" d="M46.7,14.9h1.8c0.1,0,0.2-0.1,0.2-0.2V8.6c0-1.3-0.4-2.4-1.3-3.2c-0.8-0.8-2-1.2-3.4-1.2
				c-1.8,0-3.2,0.7-4.2,2c0,0,0,0.1,0,0.1c0,0,0,0.1,0.1,0.1l1.6,1c0.1,0,0.2,0,0.2,0c0.6-0.8,1.4-1.3,2.3-1.3
				c0.7,0,1.2,0.2,1.7,0.6c0.5,0.4,0.7,0.9,0.7,1.4l0,0.2l-0.2-0.1c-0.7-0.3-1.5-0.4-2.4-0.4c-1.3,0-2.4,0.3-3.2,1
				c-0.8,0.6-1.2,1.5-1.2,2.6c0,1,0.4,1.9,1.2,2.6c0.8,0.7,1.7,1,2.9,1c1.1,0,2-0.4,2.7-1.2l0.3-0.3v1
				C46.5,14.8,46.6,14.9,46.7,14.9 M46.5,10.6c0,0.7-0.3,1.2-0.9,1.8c-0.6,0.6-1.2,0.8-2,0.8c-0.5,0-1-0.1-1.4-0.5
				c-0.4-0.3-0.6-0.7-0.6-1.1c0-0.5,0.2-0.9,0.7-1.2c0.5-0.3,1.1-0.5,1.8-0.5c0.9,0,1.7,0.2,2.2,0.6L46.5,10.6L46.5,10.6z"/>
			<path class="st1" d="M37,14.9c0.1,0,0.2-0.1,0.2-0.2V0.2C37.2,0.1,37.1,0,37,0h-1.9C35.1,0,35,0.1,35,0.2v14.6
				c0,0.1,0.1,0.2,0.2,0.2H37z"/>
			<path class="st1" d="M52.2,19.3h1.9c0.1,0,0.1,0,0.2-0.1l6.2-14.4c0-0.1,0-0.1,0-0.2c0,0-0.1-0.1-0.1-0.1h-2
				c-0.1,0-0.1,0-0.2,0.1l-2.8,6.8l-2.8-6.8c0-0.1-0.1-0.1-0.2-0.1h-2c-0.1,0-0.1,0-0.1,0.1c0,0,0,0.1,0,0.2l4.1,9.3l0,0.1L52,19.1
				c0,0.1,0,0.1,0,0.2C52,19.3,52.1,19.3,52.2,19.3"/>
			<path class="st2" d="M13,4.5L6.6,0.6C6,0.2,5.2,0,4.4,0C2.8,0,1.4,0.8,0.6,2.1C0.3,2.7,0.1,3.3,0,4c0,0.4,0,13.7,0,15.3
				c0,0.2,0.1,0.3,0.3,0.3c0.1,0,0.1,0,0.2-0.1c0.6-0.4,2.3-1.4,2.9-1.7c0.1-0.1,0.2-0.2,0.2-0.3c0,0,0-12.1,0-12.3
				c0-0.2,0.1-0.5,0.2-0.7C4.1,4,4.6,3.7,5.2,3.7c0.3,0,0.6,0.1,0.9,0.2l4.7,2.9c0.5,0.3,0.8,0.8,0.8,1.4c0,0.6-0.3,1.1-0.8,1.4
				l-4.3,2.6v2.8c0,0,0,0,0,0c0,0.3,0.2,0.5,0.5,0.5c0.1,0,0.2,0,0.3-0.1L13,12c1.3-0.8,2.1-2.2,2.1-3.7C15.1,6.7,14.3,5.3,13,4.5"
				/>
		</g>
	</g>
</g>
</svg>
